<svg width="177" height="219" viewBox="0 0 177 219" fill="none" xmlns="http://www.w3.org/2000/svg">
<path d="M86.3791 168.011C85.5053 165.583 85.0921 163.036 84.9003 160.506C84.7204 157.971 84.7639 155.441 84.7926 152.929C84.7975 147.91 85.0763 142.819 85.6002 137.812C86.1231 132.795 86.7963 127.808 87.3588 122.827C87.9647 117.854 88.3799 112.87 88.7486 107.863C89.1184 102.858 89.4564 97.84 89.9299 92.8213C90.3748 87.8009 91.1261 82.7859 91.9366 77.8246C92.7156 72.8535 93.544 67.9012 94.1124 62.9273C94.6778 57.9544 94.9556 52.9573 94.7371 47.9539C94.7292 47.8105 94.8508 47.6886 95.009 47.6815C95.1612 47.6752 95.2917 47.78 95.3085 47.9154C95.866 52.9313 95.8601 58.0037 95.4637 63.0304C95.2769 65.546 95.0238 68.0553 94.7332 70.5592L93.7328 78.0442C93.024 83.0287 92.422 87.9829 92.0009 92.9746C91.5778 97.9654 91.2892 102.972 90.9669 107.989C90.6456 113.003 90.2789 118.036 89.7115 123.05C89.1273 128.057 88.4363 133.036 87.8995 138.013C87.3281 142.999 86.9723 147.941 86.9001 152.963C86.7657 157.991 86.7568 162.903 86.9436 167.92C86.9505 168.065 86.826 168.186 86.6658 168.192C86.5334 168.197 86.4187 168.119 86.3791 168.011Z" fill="#18251B"/>
<path d="M87.1128 171.413C86.5444 169.993 86.7995 168.677 86.9725 167.351L87.4914 163.373L88.0934 159.398C88.3267 158.072 88.5818 156.743 88.8773 155.415C89.4952 152.763 90.2939 150.134 91.3506 147.6C92.4202 145.07 93.7488 142.63 95.3641 140.365C95.4511 140.244 95.63 140.209 95.7634 140.288C95.8791 140.355 95.9236 140.486 95.8771 140.598C94.8569 143.107 93.9169 145.607 93.1003 148.135C92.271 150.658 91.5909 153.21 91.1055 155.802C90.8495 157.096 90.6349 158.402 90.4313 159.716L89.7789 163.667L89.0592 167.619C88.82 168.936 88.6618 170.264 87.6812 171.487C87.5755 171.617 87.3728 171.646 87.2275 171.551C87.1731 171.515 87.1346 171.467 87.1128 171.413Z" fill="#111C13"/>
<path d="M83.08 167.029C82.2457 165.502 82.1577 163.987 81.9264 162.451C81.6981 160.92 81.4045 159.393 81.1059 157.86L80.2281 153.245C79.9504 151.707 79.6627 150.177 79.3226 148.664C78.6702 145.632 77.8102 142.658 76.5518 139.826C75.3082 136.99 73.6959 134.283 71.5271 131.876C71.4263 131.764 71.4441 131.6 71.5667 131.509C71.6754 131.427 71.8306 131.431 71.9344 131.509C74.636 133.557 76.7189 136.265 78.2432 139.153C79.7665 142.057 80.756 145.149 81.5409 148.235C81.9225 149.783 82.2507 151.334 82.5591 152.881L83.3865 157.527C83.6366 159.083 83.8521 160.652 84.0211 162.231C84.1902 163.803 84.3819 165.412 83.6534 167.014C83.5872 167.16 83.4033 167.229 83.2431 167.169C83.17 167.141 83.1127 167.088 83.08 167.029Z" fill="#111C13"/>
<path d="M84.722 164.698C84.465 161.718 84.4838 158.898 84.1378 156.005C83.7908 153.126 83.1513 150.263 82.4731 147.388C81.8118 144.506 81.102 141.641 80.3152 138.795C79.554 135.944 78.7246 133.11 77.7766 130.311C76.8346 127.526 75.7472 124.729 74.6756 121.965C73.5685 119.22 72.401 116.508 70.7848 114.048C69.1982 111.573 67.0274 109.516 64.4533 107.78C61.8861 106.058 59.0431 104.635 56.1813 103.228C56.0419 103.16 55.9905 103.001 56.0656 102.875C56.1358 102.757 56.294 102.708 56.4284 102.758C59.4365 103.894 62.4505 105.109 65.2302 106.772C66.6142 107.609 67.9536 108.521 69.1666 109.593C70.3834 110.676 71.4174 111.902 72.3249 113.182C74.1369 115.75 75.4753 118.525 76.625 121.311C77.7579 124.101 78.8818 126.86 79.897 129.707C80.9053 132.539 81.798 135.402 82.6105 138.279C83.3885 141.164 84.0884 144.064 84.7359 146.965C85.3675 149.873 85.9419 152.819 86.2355 155.818C86.5291 158.793 86.5953 161.928 85.2885 164.782C85.2262 164.919 85.0532 164.983 84.9029 164.927C84.7972 164.887 84.7309 164.795 84.722 164.698Z" fill="#18251B"/>
<path d="M88.2997 164.542C88.5053 161.132 88.6882 157.866 88.8108 154.446C88.8919 151.041 89.1756 147.552 89.7588 144.16C90.3391 140.757 91.118 137.4 91.9395 134.069C92.7778 130.757 93.6783 127.401 94.7825 124.12C96.9741 117.545 99.7657 111.152 103.021 104.984C104.619 101.893 106.338 98.815 108.447 95.9364C110.528 93.0543 113.051 90.3756 116.104 88.3126C116.232 88.2266 116.411 88.2508 116.506 88.3664C116.595 88.4748 116.577 88.6263 116.468 88.715C113.691 90.9689 111.481 93.6987 109.597 96.5862C107.728 99.4907 106.186 102.566 104.671 105.666C101.688 111.884 98.9649 118.195 96.9138 124.69C95.8718 127.936 95.0454 131.21 94.2457 134.542C93.4104 137.852 92.6255 141.159 92.0403 144.485C91.4195 147.815 91.0656 151.123 90.9164 154.524C90.8185 156.224 90.7463 157.945 90.4784 159.666C90.1997 161.38 89.7281 163.105 88.8543 164.677C88.7811 164.808 88.6052 164.861 88.4609 164.796C88.3531 164.746 88.2938 164.644 88.2997 164.542Z" fill="#18251B"/>
<path d="M86.4868 167.603C85.6653 165.172 85.6663 162.731 85.5784 160.293L85.2521 152.986C85.1434 150.553 85.007 148.123 84.8429 145.695L84.6037 142.055L84.2972 138.42C83.8465 133.578 83.1456 128.763 82.251 123.978L81.5017 120.403L80.6832 116.836C80.3678 115.657 80.0406 114.478 79.75 113.289L78.7229 109.753L78.7209 109.747C78.6804 109.608 78.7723 109.466 78.9256 109.429C79.0669 109.396 79.2122 109.464 79.2646 109.584C79.7698 110.721 80.2443 111.871 80.7267 113.02C81.1695 114.18 81.5798 115.351 81.9949 116.522L83.106 120.07L84.0303 123.663C85.2067 128.467 85.9431 133.347 86.5105 138.23L86.8921 141.896L87.2035 145.566C87.3508 148.014 87.4694 150.463 87.5604 152.911C87.6276 155.359 87.6602 157.807 87.6849 160.252C87.7037 162.698 87.7996 165.141 87.0611 167.595C87.0177 167.739 86.8536 167.824 86.6934 167.785C86.5916 167.76 86.5165 167.688 86.4868 167.603Z" fill="#111C13"/>
<path d="M88.4363 165.918C87.5822 164.01 87.5674 162.072 87.4784 160.137L87.2629 154.331L87.1967 148.521L87.2817 142.713C87.3905 138.842 87.5378 134.97 87.7948 131.105C88.0656 127.241 88.4571 123.382 89.0354 119.539C89.0571 119.396 89.2015 119.297 89.3596 119.316C89.502 119.334 89.6058 119.443 89.6087 119.57C89.6819 123.443 89.671 127.305 89.6404 131.164C89.5939 135.023 89.5415 138.88 89.5494 142.737L89.5721 154.305L89.586 160.092C89.6038 162.021 89.7155 163.945 89.0097 165.899C88.9573 166.045 88.7853 166.124 88.6242 166.077C88.5362 166.051 88.469 165.991 88.4363 165.918Z" fill="#111C13"/>
<path d="M120.449 171.599H54.8934C53.7773 171.599 52.8728 170.779 52.8728 169.767V164.005C52.8728 162.994 53.7773 162.173 54.8934 162.173H120.449C121.565 162.173 122.469 162.994 122.469 164.005V169.767C122.469 170.779 121.565 171.599 120.449 171.599Z" fill="#802E18"/>
<path d="M120.449 171.599H54.8934C53.7773 171.599 52.8728 170.779 52.8728 169.767V164.005C52.8728 162.994 53.7773 162.173 54.8934 162.173H120.449C121.565 162.173 122.469 162.994 122.469 164.005V169.767C122.469 170.779 121.565 171.599 120.449 171.599Z" stroke="#01010B" stroke-width="0.894667" stroke-miterlimit="10" stroke-linecap="round" stroke-linejoin="round"/>
<path d="M109.758 217.717H65.5839C62.4473 217.717 59.8692 215.473 59.7417 212.631L58.6434 171.598H116.699L115.6 212.631C115.473 215.473 112.895 217.717 109.758 217.717Z" fill="#812A16"/>
<path d="M116.55 174.909L116.699 171.599H58.6435L58.8274 175.706C77.9593 173.537 97.3532 173.277 116.55 174.909Z" fill="#5C2318"/>
<g opacity="0.5">
<path d="M71.1592 162.174H55.583C54.0863 162.174 52.8724 163.274 52.8724 164.631V169.142C52.8724 170.498 54.0863 171.599 55.583 171.599H58.6435L59.1357 182.601C59.9809 181.453 60.7836 180.281 61.5389 179.096C65.0402 173.601 67.821 167.745 71.1592 162.174Z" fill="#5C2318"/>
</g>
<path d="M109.758 217.717H65.5839C62.4473 217.717 59.8692 215.473 59.7417 212.631L58.6434 171.598H116.699L115.6 212.631C115.473 215.473 112.895 217.717 109.758 217.717Z" stroke="#01010B" stroke-width="0.894667" stroke-miterlimit="10" stroke-linecap="round" stroke-linejoin="round"/>
<path d="M57.8002 93.0092C56.2255 91.5815 54.459 90.3278 52.5531 89.2828C51.2492 88.5686 49.7625 87.7763 48.9657 86.6803C43.6188 86.5549 38.2876 85.2769 33.0652 84.0599C30.9913 83.5768 28.8937 83.1027 26.7525 83.049C19.3534 82.8644 12.8182 87.65 5.44973 88.2997C4.25263 88.4055 3.01103 88.4073 1.90981 88.8473C0.809583 89.2882 -0.118642 90.3385 0.133433 91.4041C0.302471 92.1219 0.941057 92.6579 1.54604 93.1436C7.1243 97.6254 12.7016 102.107 18.2798 106.588C20.5722 108.431 22.8854 110.286 25.5346 111.68C28.0218 112.99 30.7896 113.764 33.3539 114.933C36.2097 116.234 39.288 117.134 42.4444 117.591C44.0952 117.828 45.835 117.934 47.4414 117.59C47.8299 116.355 48.5555 115.144 49.8149 114.586C51.0564 114.036 52.5768 114.248 53.7996 114.83C53.8668 114.863 53.9242 114.901 53.9894 114.935C57.1833 113.332 61.3885 113.063 63.851 110.58C65.1954 109.223 65.8043 107.371 65.9199 105.549C66.0356 103.728 65.6975 101.911 65.3624 100.111C65.2784 99.666 65.1954 99.2197 65.1123 98.7734C64.0002 98.2608 62.9514 97.6397 62.0024 96.9022C60.483 95.7183 59.2177 94.2934 57.8002 93.0092Z" fill="#2D4416"/>
<path d="M123.924 102.279C120.212 100.286 116.388 98.3946 112.255 97.2753C108.953 96.3809 105.421 96.0188 102.035 96.5036C101.252 98.5021 100.472 100.505 100.058 102.59C99.7805 103.99 99.6659 105.414 99.4474 106.822C104.573 107.73 109.801 108.157 115.024 108.076C115.323 108.072 115.625 108.066 115.926 108.06C118.682 105.793 122.003 104.102 125.565 103.132C125.009 102.852 124.458 102.565 123.924 102.279Z" fill="#18251B"/>
<path d="M69.3391 84.1279C69.2709 83.5077 69.2185 82.8839 69.1809 82.2584C64.263 82.081 59.3451 80.9563 54.4133 81.2135C53.0244 81.2861 51.6 81.4823 50.4078 82.1321C49.8009 82.4627 49.268 82.9332 48.9013 83.4808C48.5464 84.0105 48.3467 84.6118 48.3942 85.2293C48.4357 85.7723 48.6522 86.2473 48.9665 86.6802C49.7623 87.7762 51.2491 88.5693 52.5529 89.2827C54.4588 90.3277 56.2253 91.5814 57.8 93.009C59.2176 94.2933 60.4829 95.7182 62.0032 96.9021C62.9512 97.6405 64.0011 98.2607 65.1122 98.7733C67.7486 99.9876 70.7497 100.552 73.7035 100.401C71.6246 95.1061 69.953 89.7084 69.3391 84.1279Z" fill="#18251B"/>
<path d="M91.4063 29.8702C91.0218 28.9731 90.5878 28.0966 90.1232 27.2354C86.7098 20.9164 81.3174 15.4963 76.6733 10.0412C73.5199 6.33819 68.8462 3.72582 63.7799 2.83591C62.9684 2.69252 62.0589 2.61096 61.3808 3.03934C60.6008 3.53135 60.4308 4.49653 60.3409 5.35508C59.0261 17.9214 60.5564 30.7269 64.81 42.7466C65.8163 45.5919 67.0065 48.4472 69.0587 50.7853C71.4964 53.5626 74.974 55.415 77.9515 57.7155C77.9979 57.6725 78.0385 57.6268 78.0849 57.5838C79.7298 56.0728 81.7138 54.7088 84.0339 54.4185C84.9344 54.3055 86.004 54.4149 86.957 54.7447C87.1191 54.2652 87.3118 53.7938 87.5283 53.3377C88.1363 52.0534 88.9133 50.8427 89.6556 49.6167C89.9927 49.0593 90.3249 48.5001 90.6284 47.9274C93.593 42.3451 93.8816 35.6452 91.4063 29.8702Z" fill="#18251B"/>
<path d="M50.4074 82.1324C51.6006 81.4827 53.024 81.2856 54.4139 81.2139C59.3457 80.9567 64.2626 82.0814 69.1805 82.2579C68.712 74.6162 70.5062 66.6661 75.341 60.5532C73.3452 58.1326 71.1892 55.8178 68.5588 53.9788C63.6932 50.5778 57.4556 49.022 51.3129 48.9602C45.1692 48.8984 39.0937 50.2498 33.3336 52.1874C30.4649 53.1534 27.6199 54.2853 25.2237 56.0096C23.1379 57.5107 21.4564 59.4124 19.6662 61.2012C17.7534 63.1118 15.6992 64.9078 13.5225 66.5711C11.8479 67.85 9.91831 69.4299 10.1941 71.3989C10.3859 72.7637 11.6581 73.8311 13.0598 74.3563C14.4626 74.8814 16.0057 74.9764 17.5082 75.1664C26.0896 76.2508 33.7774 80.5247 42.1868 82.4183C44.3952 82.9157 46.6401 83.241 48.9009 83.4812C49.2676 82.9336 49.8014 82.4631 50.4074 82.1324Z" fill="#2D4416"/>
<path d="M143.355 69.6205C142.38 68.7359 141.602 67.648 140.436 66.9821C139.27 66.3153 137.488 66.2598 136.715 67.294C136.259 67.9043 136.282 68.7073 135.976 69.391C135.194 71.1296 132.712 71.5069 130.645 71.6288C128.002 71.7847 125.361 71.9398 122.72 72.0948C122.067 72.1334 121.414 72.1683 120.761 72.1988C120.291 72.9785 119.826 73.759 119.285 74.4912C117.917 76.3445 117.424 78.2319 118.571 80.4383C118.594 80.484 118.626 80.5306 118.656 80.5763C124.353 79.6057 130.378 80.2582 135.641 82.4637C138.163 83.5212 140.65 85.0698 141.66 87.4169C141.732 87.5854 141.8 87.7574 141.871 87.9277C143.387 88.0765 144.922 88.0514 146.448 88.1052C150.975 88.2647 155.466 89.229 159.59 90.929C162.204 92.0062 165.245 92.5708 164.523 88.7683C164.272 87.4447 163.603 87.0163 162.76 86.0368C161.605 84.6979 160.949 83.2057 160.621 81.5227C160.371 80.2367 160.338 78.9112 159.922 77.661C159.917 77.6458 159.91 77.6306 159.905 77.6153C157.348 76.0497 154.619 74.7126 151.764 73.6506C148.81 72.5501 145.613 71.67 143.355 69.6205Z" fill="#18251B"/>
<path d="M173.157 76.6831C170.589 74.5206 167.446 73.0078 164.694 71.0407C158.981 66.9559 154.925 60.9084 148.377 58.0326C146.236 57.0925 143.87 56.5153 141.976 55.2114C140.65 54.2982 139.631 53.0794 138.531 51.9475C136.842 50.2116 134.886 48.6316 132.554 47.6888C130.221 46.7469 127.465 46.5014 125.113 47.402C124.239 47.7363 123.436 48.2194 122.54 48.5026C121.508 48.8279 120.398 48.8745 119.311 48.9757C112.223 49.638 105.498 52.8965 100.856 57.787C101.657 58.0236 102.414 58.3731 103.09 58.8463C104.923 60.1296 105.983 62.1012 106.901 64.028C107.568 65.4306 108.201 66.8663 108.445 68.3772C108.558 69.0754 108.575 69.778 108.552 70.4824C111.014 71.3561 113.563 71.9862 116.195 72.1851C117.714 72.3007 119.238 72.2693 120.761 72.1985C121.414 72.1681 122.067 72.1331 122.719 72.0946C125.361 71.9396 128.002 71.7845 130.644 71.6286C132.712 71.5076 135.194 71.1294 135.976 69.3908C136.282 68.7079 136.259 67.9049 136.715 67.2937C137.488 66.2595 139.269 66.3151 140.436 66.9819C141.602 67.6477 142.38 68.7357 143.355 69.6202C145.613 71.6698 148.81 72.5499 151.764 73.6504C154.619 74.7123 157.348 76.0495 159.905 77.616C161.701 78.7156 163.415 79.9254 165.018 81.2473C166.448 82.4258 167.835 83.7136 169.595 84.4377C171.944 85.4038 174.643 85.247 177.215 85.0704C177.724 81.9275 175.725 78.8455 173.157 76.6831Z" fill="#2D4416"/>
<path d="M90.6286 47.9274C90.3241 48.5 89.993 49.0592 89.6549 49.6167C91.5005 50.6894 93.5042 51.3723 95.6741 51.1931C97.5325 51.0398 99.2456 50.253 101.041 49.7941C102.885 49.3218 104.858 49.1847 106.562 48.388C108.078 47.6791 109.256 46.5033 110.352 45.3168C115.891 39.3159 120.246 32.2764 121.982 24.6105C123.717 16.9454 122.67 8.62522 118.178 1.94238C117.64 1.14298 116.927 0.294293 115.9 0.187647C114.652 0.0585968 113.672 1.06232 112.706 1.79182C111.016 3.07157 108.839 3.66484 106.85 4.52339C103.482 5.9761 100.558 8.26495 98.4815 11.0727C96.198 14.1592 94.9722 17.769 93.3906 21.1978C92.4366 23.268 91.3433 25.2844 90.1225 27.2354C90.5881 28.0975 91.0211 28.9731 91.4066 29.8702C93.8819 35.6452 93.5932 42.345 90.6286 47.9274Z" fill="#2D4416"/>
<path d="M107.081 79.8732C106.615 82.0491 106.078 84.2125 105.47 86.3597C109.002 83.5914 113.289 81.6109 117.851 80.7048C117.912 80.6932 117.974 80.6869 118.036 80.6752C117.992 80.6573 117.95 80.6367 117.905 80.6197C114.52 79.2897 110.659 79.0738 107.081 79.8732Z" fill="#2D4416"/>
<path d="M151.528 96.5965C149.966 93.5665 147.21 91.0545 143.876 89.6233C143.321 89.3849 142.726 89.16 142.337 88.7298C142.123 88.4932 141.991 88.2136 141.871 87.9277C141.8 87.7575 141.732 87.5854 141.66 87.4169C140.651 85.0698 138.162 83.5212 135.641 82.4637C130.378 80.2582 124.353 79.6058 118.656 80.5763C118.449 80.6122 118.242 80.6355 118.036 80.6749C117.975 80.6875 117.912 80.6928 117.851 80.7054C113.288 81.6114 109.002 83.5911 105.47 86.3594C104.607 89.41 103.608 92.4311 102.464 95.4037C102.322 95.7711 102.179 96.1368 102.036 96.5033C105.42 96.0185 108.953 96.3814 112.255 97.2749C116.388 98.3943 120.212 100.286 123.925 102.278C124.457 102.565 125.008 102.852 125.566 103.131C126.32 102.926 127.081 102.741 127.853 102.602C131.503 101.945 135.261 102.034 138.979 102.168C141.514 102.26 144.047 102.37 146.579 102.501C147.435 102.544 148.355 102.613 149.014 103.109C149.151 103.212 149.259 103.33 149.358 103.452C150.201 103.13 150.996 102.726 151.557 102.084C152.875 100.57 152.429 98.3432 151.528 96.5965Z" fill="#2D4416"/>
<path d="M99.7145 144.359C98.387 144.829 96.917 145.17 95.5439 144.892C96.5552 147.267 99.7916 148.204 102.357 149.408C105.722 150.986 108.394 153.574 111.702 155.247C115.01 156.92 119.593 157.444 122.277 155.02C125.63 151.992 124.99 147.019 123.86 143.285C123.414 141.805 122.793 140.347 121.784 139.115C120.117 137.075 117.535 135.823 114.943 134.863C114.001 134.514 113.043 134.183 112.128 133.785C110.892 135.345 109.807 137.026 108.478 138.525C106.181 141.115 103.128 143.148 99.7145 144.359Z" fill="#18251B"/>
<path d="M108.445 68.3777C108.201 66.8659 107.568 65.4311 106.901 64.0285C105.983 62.1017 104.923 60.1292 103.09 58.8468C102.414 58.3736 101.657 58.0232 100.856 57.7866C98.4691 57.0813 95.6874 57.3932 93.4681 58.5251C92.615 58.9606 91.7343 59.5243 90.7606 59.4257C89.0919 59.2564 89.6435 57.0275 88.9377 56.0713C88.485 55.4574 87.7624 55.0237 86.9567 54.745C86.0038 54.4143 84.9342 54.3049 84.0336 54.4179C81.7145 54.7091 79.7306 56.0731 78.0857 57.5841C78.0382 57.6262 77.9977 57.6728 77.9512 57.7158C76.9973 58.6066 76.1294 59.5557 75.3405 60.554C70.5066 66.666 68.7114 74.616 69.181 82.2578C69.2186 82.8842 69.271 83.5071 69.3392 84.1281C69.953 89.7078 71.6237 95.1055 73.7035 100.4C75.1626 104.113 76.8144 107.777 78.4732 111.411C79.4528 113.56 80.4344 115.709 81.415 117.859C82.7535 120.793 84.4943 124.069 87.8592 124.954C88.4059 125.098 88.9852 125.169 89.5466 125.081C91.1985 124.825 92.2167 123.345 92.9857 121.996C94.5417 119.27 95.9592 116.479 97.2334 113.635C98.0618 111.789 98.8319 109.909 99.2481 107.951C99.3271 107.577 99.3884 107.199 99.4468 106.822C99.6662 105.414 99.7799 103.99 100.059 102.59C100.473 100.506 101.253 98.502 102.036 96.5035C102.179 96.137 102.322 95.7705 102.464 95.4039C103.608 92.4304 104.607 89.4103 105.47 86.3596C106.078 84.2124 106.615 82.049 107.081 79.8731C107.546 77.7016 107.948 75.5185 108.269 73.3255C108.408 72.3837 108.52 71.4319 108.552 70.4828C108.575 69.7784 108.558 69.0749 108.445 68.3777Z" fill="#2D4416"/>
<path d="M149.357 103.453C149.258 103.331 149.152 103.213 149.014 103.109C148.355 102.613 147.436 102.545 146.578 102.501C144.047 102.37 141.513 102.259 138.979 102.168C135.261 102.034 131.502 101.944 127.853 102.602C127.081 102.741 126.32 102.927 125.565 103.132C122.003 104.102 118.682 105.794 115.926 108.06C115.819 108.147 115.707 108.228 115.603 108.316C113.417 110.179 111.593 112.383 109.126 113.964C107.524 114.989 105.717 115.7 104.078 116.668C100.319 118.889 97.163 122.481 97.1659 126.707C97.1679 129.741 98.5716 133.064 96.7932 135.636C95.6861 137.237 93.5341 138.146 92.7067 139.881C91.8249 141.731 93.0181 144.155 95.1276 144.795C95.265 144.837 95.4044 144.864 95.5437 144.892C96.9178 145.17 98.3867 144.83 99.7143 144.359C103.128 143.147 106.182 141.115 108.478 138.526C109.807 137.026 110.892 135.344 112.128 133.785C112.84 132.886 113.602 132.028 114.492 131.268C119.176 127.279 126.291 126.857 131.884 123.986C135.36 122.202 138.151 119.522 140.886 116.882C143.939 113.934 147.035 110.933 149.056 107.327C149.736 106.113 150.191 104.481 149.357 103.453Z" fill="#2D4416"/>
<path d="M75.235 130.648C74.549 126.348 72.2161 122.079 68.1502 119.779C66.8681 119.054 65.3804 118.531 63.8749 118.643C61.4895 118.82 59.7072 119.938 57.658 118.222C56.3334 117.114 55.6157 115.786 53.9886 114.935C53.9243 114.901 53.867 114.863 53.7998 114.83C52.577 114.248 51.0566 114.036 49.815 114.586C48.5556 115.144 47.8301 116.355 47.4416 117.59C47.409 117.694 47.3744 117.798 47.3467 117.901C46.9859 119.24 46.9038 120.643 46.371 121.934C45.0572 125.116 41.2801 127.019 39.8497 130.16C39.0401 131.937 39.0707 133.921 38.8137 135.831C38.0634 141.402 34.7953 146.572 34.5947 152.182C34.482 155.307 35.3341 158.389 36.1803 161.421C37.4031 165.806 38.6358 170.216 40.6642 174.349C41.4758 175.999 42.4811 177.672 44.1547 178.654C46.5994 180.088 49.9406 179.661 52.4287 178.29C54.9178 176.918 56.7367 174.761 58.4716 172.641C60.3498 170.344 62.2033 168.03 64.0301 165.699C65.7204 163.541 67.393 161.361 68.7641 159.025C71.5735 154.236 73.0514 148.903 74.2228 143.584C75.1609 139.323 75.9211 134.948 75.235 130.648Z" fill="#2D4416"/>
<path d="M56.5654 124.137C54.5281 128.379 53.155 132.853 51.7879 137.311C50.7994 140.532 49.8118 143.753 48.8243 146.973C48.0957 149.349 47.3652 151.731 46.8887 154.159C45.6551 160.448 46.1444 166.894 45.8696 173.278" stroke="#F1B195" stroke-width="0.72" stroke-miterlimit="10" stroke-linecap="round" stroke-linejoin="round"/>
<path d="M98.1377 131.614C100.939 127.433 104.632 123.743 108.952 120.81C111.788 118.884 114.878 117.289 118.012 115.789C126.366 111.794 135.101 108.45 144.1 105.85" stroke="#F1B195" stroke-width="0.72" stroke-miterlimit="10" stroke-linecap="round" stroke-linejoin="round"/>
<path d="M56.3984 124.463C57.5837 123.022 59.7851 122.716 61.7553 122.523C64.8227 122.223 68.0374 121.941 70.8972 122.989" stroke="#F1B195" stroke-width="0.72" stroke-miterlimit="10" stroke-linecap="round" stroke-linejoin="round"/>
<path d="M56.2416 124.056C54.4949 122.199 52.333 120.665 49.9249 119.573" stroke="#F1B195" stroke-width="0.72" stroke-miterlimit="10" stroke-linecap="round" stroke-linejoin="round"/>
<path d="M54.8158 128.385C52.034 129.34 49.2523 130.294 46.4706 131.249C45.658 131.528 44.8415 131.808 44.0794 132.188C42.8229 132.815 41.7168 133.728 41.0475 134.879" stroke="#F1B195" stroke-width="0.72" stroke-miterlimit="10" stroke-linecap="round" stroke-linejoin="round"/>
<path d="M52.4666 135.031C50.6734 136.149 48.8862 137.278 47.1078 138.416C44.0523 140.37 40.8841 142.499 39.3696 145.599" stroke="#F1B195" stroke-width="0.72" stroke-miterlimit="10" stroke-linecap="round" stroke-linejoin="round"/>
<path d="M55.3438 127.507C57.0737 129.356 59.6874 130.273 62.0777 131.365C65.2647 132.819 68.3449 134.83 69.8613 137.758" stroke="#F1B195" stroke-width="0.72" stroke-miterlimit="10" stroke-linecap="round" stroke-linejoin="round"/>
<path d="M52.064 135.311C54.1695 138.077 56.5321 140.684 58.4578 143.556C60.3844 146.426 61.881 149.631 62.0234 152.989" stroke="#F1B195" stroke-width="0.72" stroke-miterlimit="10" stroke-linecap="round" stroke-linejoin="round"/>
<path d="M49.2745 146.47C51.1152 149.39 52.9647 152.327 54.2567 155.48C55.5477 158.632 56.2674 162.041 55.7662 165.373" stroke="#F1B195" stroke-width="0.72" stroke-miterlimit="10" stroke-linecap="round" stroke-linejoin="round"/>
<path d="M46.743 155.839C47.2738 158.113 48.5461 160.178 49.4298 162.36C50.6635 165.405 51.135 168.701 50.7979 171.93" stroke="#F1B195" stroke-width="0.72" stroke-miterlimit="10" stroke-linecap="round" stroke-linejoin="round"/>
<path d="M49.346 145.087C46.8441 146.981 44.4637 149.008 42.2217 151.153C41.5268 151.818 40.8417 152.498 40.2872 153.264C39.3243 154.593 38.7866 156.131 38.2607 157.649" stroke="#F1B195" stroke-width="0.72" stroke-miterlimit="10" stroke-linecap="round" stroke-linejoin="round"/>
<path d="M46.534 155.788C45.9092 157.733 44.38 159.31 43.0889 160.965C41.7979 162.619 40.675 164.59 41.0506 166.587" stroke="#F1B195" stroke-width="0.72" stroke-miterlimit="10" stroke-linecap="round" stroke-linejoin="round"/>
<path d="M98.0005 132.278C98.8477 133.579 98.7914 135.193 98.5966 136.692C98.4009 138.192 98.0974 139.733 98.5304 141.191" stroke="#F1B195" stroke-width="0.72" stroke-miterlimit="10" stroke-linecap="round" stroke-linejoin="round"/>
<path d="M101.238 128.077C101.636 128.105 101.965 128.367 102.224 128.643C103.746 130.258 103.918 132.676 105.505 134.238" stroke="#F1B195" stroke-width="0.72" stroke-miterlimit="10" stroke-linecap="round" stroke-linejoin="round"/>
<path d="M105.23 124.286C106.705 124.195 108.134 124.688 109.57 125.01C111.788 125.508 114.115 125.603 116.373 125.289" stroke="#F1B195" stroke-width="0.72" stroke-miterlimit="10" stroke-linecap="round" stroke-linejoin="round"/>
<path d="M112.585 118.871C114.233 118.534 115.934 118.983 117.588 119.299C119.299 119.626 121.039 119.812 122.776 119.996C124.006 120.127 125.273 120.256 126.468 119.959" stroke="#F1B195" stroke-width="0.72" stroke-miterlimit="10" stroke-linecap="round" stroke-linejoin="round"/>
<path d="M121.199 114.565C123.332 114.592 125.438 114.973 127.558 115.2C129.677 115.427 131.867 115.496 133.904 114.918" stroke="#F1B195" stroke-width="0.72" stroke-miterlimit="10" stroke-linecap="round" stroke-linejoin="round"/>
<path d="M130.964 110.699C132.801 110.265 134.729 110.31 136.627 110.255C138.525 110.2 140.481 110.026 142.154 109.208" stroke="#F1B195" stroke-width="0.72" stroke-miterlimit="10" stroke-linecap="round" stroke-linejoin="round"/>
<path d="M103.516 124.576C104.364 122.12 105.746 119.816 107.559 117.835" stroke="#F1B195" stroke-width="0.72" stroke-miterlimit="10" stroke-linecap="round" stroke-linejoin="round"/>
<path d="M110.564 119.281C112.174 115.668 114.522 112.327 117.457 109.48" stroke="#F1B195" stroke-width="0.72" stroke-miterlimit="10" stroke-linecap="round" stroke-linejoin="round"/>
<path d="M119.638 114.609C121.096 112.826 122.198 110.826 123.571 108.99C124.945 107.152 126.668 105.431 128.921 104.567" stroke="#F1B195" stroke-width="0.72" stroke-miterlimit="10" stroke-linecap="round" stroke-linejoin="round"/>
<path d="M129.066 110.286C131.192 108.166 133.607 106.283 136.237 104.695" stroke="#F1B195" stroke-width="0.72" stroke-miterlimit="10" stroke-linecap="round" stroke-linejoin="round"/>
<path d="M102.967 95.3209C106.312 93.0527 111.037 92.5866 114.841 94.1496C117.394 95.199 119.433 97.0281 121.599 98.6413C123.765 100.254 126.268 101.73 129.068 101.835" stroke="#F1B195" stroke-width="0.72" stroke-miterlimit="10" stroke-linecap="round" stroke-linejoin="round"/>
<path d="M90.2502 64.9641C89.4485 67.9735 88.2692 70.9784 88.1526 74.0899C87.859 81.9136 87.6346 89.7382 87.4893 97.5646C87.3449 105.299 87.0276 112.948 88.5885 120.593" stroke="#F1B195" stroke-width="0.72" stroke-miterlimit="10" stroke-linecap="round" stroke-linejoin="round"/>
<path d="M108.094 92.3904C111.412 91.3831 114.527 89.8309 117.242 87.8288C118.783 86.6933 120.198 85.4127 121.84 84.4009C123.482 83.3891 125.422 82.6471 127.403 82.7716" stroke="#F1B195" stroke-width="0.72" stroke-miterlimit="10" stroke-linecap="round" stroke-linejoin="round"/>
<path d="M117.931 95.3416C121.41 95.3174 124.476 93.3888 127.294 91.5417C130.114 89.6947 133.187 87.7724 136.666 87.7625" stroke="#F1B195" stroke-width="0.72" stroke-miterlimit="10" stroke-linecap="round" stroke-linejoin="round"/>
<path d="M123.09 99.1853C126.048 99.3117 129.039 98.7462 131.695 97.5597C134.806 96.1697 137.6 93.9059 141.053 93.6102" stroke="#F1B195" stroke-width="0.72" stroke-miterlimit="10" stroke-linecap="round" stroke-linejoin="round"/>
<path d="M131.788 101.505C134.114 100.629 136.169 99.265 138.381 98.1716C140.591 97.0783 143.095 96.2394 145.588 96.5594" stroke="#F1B195" stroke-width="0.72" stroke-miterlimit="10" stroke-linecap="round" stroke-linejoin="round"/>
<path d="M90.4355 64.4805C90.3436 64.2045 90.1578 63.9643 89.964 63.7358C87.9751 61.3887 84.8563 59.8589 81.6011 59.6331" stroke="#F1B195" stroke-width="0.72" stroke-miterlimit="10" stroke-linecap="round" stroke-linejoin="round"/>
<path d="M89.8303 66.0694C89.3894 65.7459 88.7884 65.684 88.223 65.641C86.5247 65.5146 84.8066 65.4501 83.1222 65.6858C81.4387 65.9215 79.777 66.4745 78.4711 67.4683" stroke="#F1B195" stroke-width="0.72" stroke-miterlimit="10" stroke-linecap="round" stroke-linejoin="round"/>
<path d="M91.2093 64.1191C91.2547 64.146 91.1539 64.1952 91.1332 64.1504C91.1114 64.1047 91.1559 64.0581 91.1964 64.025C93.5313 62.1537 96.6531 61.1097 99.7689 61.1581" stroke="#F1B195" stroke-width="0.72" stroke-miterlimit="10" stroke-linecap="round" stroke-linejoin="round"/>
<path d="M90.0756 66.0685C92.5785 65.1893 95.4512 65.5003 97.9126 66.4736C100.373 67.4459 102.478 69.0286 104.417 70.7116" stroke="#F1B195" stroke-width="0.72" stroke-miterlimit="10" stroke-linecap="round" stroke-linejoin="round"/>
<path d="M89.1227 70.0209C90.8714 72.627 93.3941 74.7151 95.6885 76.9466C97.9829 79.1772 100.137 81.6964 100.858 84.6753" stroke="#F1B195" stroke-width="0.72" stroke-miterlimit="10" stroke-linecap="round" stroke-linejoin="round"/>
<path d="M88.2042 79.1792C93.1191 82.9458 96.4811 88.34 97.5052 94.0997" stroke="#F1B195" stroke-width="0.72" stroke-miterlimit="10" stroke-linecap="round" stroke-linejoin="round"/>
<path d="M88.6333 68.9609C87.1614 70.7228 85.5926 72.4712 83.5572 73.6865C82.2573 74.4617 80.8032 74.9976 79.4667 75.719C77.7951 76.6197 76.3163 77.8116 75.134 79.2114" stroke="#F1B195" stroke-width="0.72" stroke-miterlimit="10" stroke-linecap="round" stroke-linejoin="round"/>
<path d="M88.0444 77.1641C86.3392 79.8123 83.6603 81.801 81.2048 83.9097C78.7493 86.0184 76.3847 88.4453 75.6404 91.4359" stroke="#F1B195" stroke-width="0.72" stroke-miterlimit="10" stroke-linecap="round" stroke-linejoin="round"/>
<path d="M87.5429 86.1167C86.5327 88.4315 84.2759 90.0635 82.3047 91.7967C80.3336 93.5299 78.4663 95.7327 78.6383 98.2178" stroke="#F1B195" stroke-width="0.72" stroke-miterlimit="10" stroke-linecap="round" stroke-linejoin="round"/>
<path d="M87.8807 93.9836C86.9821 95.0152 86.0836 96.0467 85.184 97.0782C82.86 99.7434 80.4391 102.628 80.1524 106.016" stroke="#F1B195" stroke-width="0.72" stroke-miterlimit="10" stroke-linecap="round" stroke-linejoin="round"/>
<path d="M87.9178 92.0797C91.6337 95.8589 94.025 100.693 94.6665 105.722" stroke="#F1B195" stroke-width="0.72" stroke-miterlimit="10" stroke-linecap="round" stroke-linejoin="round"/>
<path d="M87.0689 101.347C84.8437 104.782 82.5523 108.42 82.492 112.402" stroke="#F1B195" stroke-width="0.72" stroke-miterlimit="10" stroke-linecap="round" stroke-linejoin="round"/>
<path d="M87.6983 100.425C88.1787 101.253 88.8845 101.952 89.4826 102.713C91.6178 105.425 92.3404 108.819 93.0097 112.096" stroke="#F1B195" stroke-width="0.72" stroke-miterlimit="10" stroke-linecap="round" stroke-linejoin="round"/>
<path d="M87.9937 110.875C89.2214 112.888 90.0854 115.081 90.5411 117.344" stroke="#F1B195" stroke-width="0.72" stroke-miterlimit="10" stroke-linecap="round" stroke-linejoin="round"/>
<path d="M106.678 61.7224C111.378 58.3196 116.581 54.7483 122.595 54.7384C125.945 54.7331 129.156 55.8551 132.268 56.9789C137.231 58.7704 142.192 60.6165 146.812 63.0461C151.433 65.4765 155.729 68.5208 158.947 72.387C161.112 74.9895 162.821 77.9872 165.638 80.0144" stroke="#F1B195" stroke-width="0.72" stroke-miterlimit="10" stroke-linecap="round" stroke-linejoin="round"/>
<path d="M133.912 71.6653C138.649 71.1697 143.442 74.1835 147.187 76.4356C151.385 78.9602 155.285 81.8934 158.792 85.1725" stroke="#F1B195" stroke-width="0.72" stroke-miterlimit="10" stroke-linecap="round" stroke-linejoin="round"/>
<path d="M110.029 58.5718C111.049 56.2713 112.139 53.8794 114.206 52.2555C115.785 51.0134 117.797 50.3358 119.77 49.7076" stroke="#F1B195" stroke-width="0.72" stroke-miterlimit="10" stroke-linecap="round" stroke-linejoin="round"/>
<path d="M120.565 54.3818C125.109 51.2766 131.011 49.8561 136.656 50.5094" stroke="#F1B195" stroke-width="0.72" stroke-miterlimit="10" stroke-linecap="round" stroke-linejoin="round"/>
<path d="M108.252 62.0471C112.685 64.6344 117.747 66.3327 122.97 66.9869" stroke="#F1B195" stroke-width="0.72" stroke-miterlimit="10" stroke-linecap="round" stroke-linejoin="round"/>
<path d="M113.808 57.9762C116.466 59.2371 119.147 60.4595 121.848 61.6433C123.598 62.4096 125.46 63.1785 127.398 63.0351" stroke="#F1B195" stroke-width="0.72" stroke-miterlimit="10" stroke-linecap="round" stroke-linejoin="round"/>
<path d="M125.484 55.5778C128.974 57.1739 131.993 59.6079 134.151 62.5645" stroke="#F1B195" stroke-width="0.72" stroke-miterlimit="10" stroke-linecap="round" stroke-linejoin="round"/>
<path d="M132.978 56.2657C133.77 56.5901 134.693 56.5327 135.531 56.3239C136.369 56.116 137.155 55.7674 137.979 55.5147C138.885 55.2351 139.835 55.0719 140.791 55.0316C141.393 55.0065 142.028 55.0379 142.539 55.3256" stroke="#F1B195" stroke-width="0.72" stroke-miterlimit="10" stroke-linecap="round" stroke-linejoin="round"/>
<path d="M139.573 60.3107C141.311 61.5859 142.811 63.1283 143.99 64.8507C144.548 65.6672 145.04 66.5293 145.739 67.2507C146.266 67.7947 146.899 68.2455 147.528 68.6927" stroke="#F1B195" stroke-width="0.72" stroke-miterlimit="10" stroke-linecap="round" stroke-linejoin="round"/>
<path d="M145.154 61.5439C146.676 61.8387 148.231 61.9901 149.788 61.9964C150.663 62 151.549 61.9588 152.401 62.1398C153.457 62.363 154.4 62.9132 155.455 63.14" stroke="#F1B195" stroke-width="0.72" stroke-miterlimit="10" stroke-linecap="round" stroke-linejoin="round"/>
<path d="M155.026 67.678C158.662 67.9961 162.15 69.5465 164.653 71.9581" stroke="#F1B195" stroke-width="0.72" stroke-miterlimit="10" stroke-linecap="round" stroke-linejoin="round"/>
<path d="M151.602 66.5726C152.206 68.8793 153.444 71.0481 155.173 72.827" stroke="#F1B195" stroke-width="0.72" stroke-miterlimit="10" stroke-linecap="round" stroke-linejoin="round"/>
<path d="M161.848 75.1769C164.816 76.4701 167.491 78.3154 169.657 80.5639" stroke="#F1B195" stroke-width="0.72" stroke-miterlimit="10" stroke-linecap="round" stroke-linejoin="round"/>
<path d="M135.998 71.2238C137.495 70.3132 139.397 69.9691 141.165 70.2881" stroke="#F1B195" stroke-width="0.72" stroke-miterlimit="10" stroke-linecap="round" stroke-linejoin="round"/>
<path d="M145.874 74.9258C147.486 74.2958 149.309 74.1147 151.034 74.4132" stroke="#F1B195" stroke-width="0.72" stroke-miterlimit="10" stroke-linecap="round" stroke-linejoin="round"/>
<path d="M155.043 81.4822C156.358 81.2062 157.762 81.2877 159.028 81.7152" stroke="#F1B195" stroke-width="0.72" stroke-miterlimit="10" stroke-linecap="round" stroke-linejoin="round"/>
<path d="M135.007 72.1558C136.492 73.2895 137.144 75.0684 137.649 76.7685C138.154 78.4686 138.621 80.2573 139.884 81.5953" stroke="#F1B195" stroke-width="0.72" stroke-miterlimit="10" stroke-linecap="round" stroke-linejoin="round"/>
<path d="M142.526 74.384C145.759 77.5547 145.677 82.6316 148.723 85.9502" stroke="#F1B195" stroke-width="0.72" stroke-miterlimit="10" stroke-linecap="round" stroke-linejoin="round"/>
<path d="M149.311 78.4313C152.009 80.4934 151.651 84.6813 154.387 86.7021" stroke="#F1B195" stroke-width="0.72" stroke-miterlimit="10" stroke-linecap="round" stroke-linejoin="round"/>
<path d="M128.975 72.5786C130.644 74.0528 130.467 76.7351 132.256 78.0874" stroke="#F1B195" stroke-width="0.72" stroke-miterlimit="10" stroke-linecap="round" stroke-linejoin="round"/>
<path d="M100.701 102.294C101.195 101.643 102.105 101.391 102.95 101.199C108.092 100.032 113.8 99.5476 118.466 101.827" stroke="#F1B195" stroke-width="0.72" stroke-miterlimit="10" stroke-linecap="round" stroke-linejoin="round"/>
<path d="M70.5647 90.6028C68.2417 89.7183 65.9186 88.8347 63.5956 87.9501C60.2791 86.6874 56.8044 85.3996 53.217 85.6416" stroke="#F1B195" stroke-width="0.72" stroke-miterlimit="10" stroke-linecap="round" stroke-linejoin="round"/>
<path d="M107.305 101.343C109.43 103.215 111.871 104.789 114.519 105.994" stroke="#F1B195" stroke-width="0.72" stroke-miterlimit="10" stroke-linecap="round" stroke-linejoin="round"/>
<path d="M113.185 101.263C114.429 102.431 115.941 103.365 117.595 103.989" stroke="#F1B195" stroke-width="0.72" stroke-miterlimit="10" stroke-linecap="round" stroke-linejoin="round"/>
<path d="M102.406 100.765C103.219 99.2607 104.603 98.0151 106.268 97.2874" stroke="#F1B195" stroke-width="0.72" stroke-miterlimit="10" stroke-linecap="round" stroke-linejoin="round"/>
<path d="M100.965 102.656L105.547 104.841" stroke="#F1B195" stroke-width="0.72" stroke-miterlimit="10" stroke-linecap="round" stroke-linejoin="round"/>
<path d="M68.5171 90.6375C66.3285 92.2165 63.449 92.9855 60.6663 92.7336" stroke="#F1B195" stroke-width="0.72" stroke-miterlimit="10" stroke-linecap="round" stroke-linejoin="round"/>
<path d="M66.2697 88.0775C64.2739 86.114 61.9795 84.3996 59.4726 82.9988" stroke="#F1B195" stroke-width="0.72" stroke-miterlimit="10" stroke-linecap="round" stroke-linejoin="round"/>
<path d="M59.9216 86.8221C58.4329 87.0479 56.9293 87.1949 55.4218 87.2621" stroke="#F1B195" stroke-width="0.72" stroke-miterlimit="10" stroke-linecap="round" stroke-linejoin="round"/>
<path d="M56.941 103.793C55.8714 102.608 54.352 101.836 52.8366 101.162C43.1075 96.8258 32.1813 95.339 21.4558 93.9087C16.5487 93.2536 11.6407 92.5994 6.73364 91.9443" stroke="#F1B195" stroke-width="0.72" stroke-miterlimit="10" stroke-linecap="round" stroke-linejoin="round"/>
<path d="M69.2069 60.5983C61.7702 59.1527 53.7413 60.3787 47.2368 63.9527C45.7491 64.7709 44.3325 65.7083 42.7628 66.3894C35.1313 69.6963 25.5011 66.3823 17.8884 69.7241" stroke="#F1B195" stroke-width="0.72" stroke-miterlimit="10" stroke-linecap="round" stroke-linejoin="round"/>
<path d="M57.3542 103.755C58.8943 102.606 60.1913 101.189 61.1531 99.6044" stroke="#F1B195" stroke-width="0.72" stroke-miterlimit="10" stroke-linecap="round" stroke-linejoin="round"/>
<path d="M53.4001 100.748C52.9542 96.7312 51.682 92.6088 48.6265 89.6729" stroke="#F1B195" stroke-width="0.72" stroke-miterlimit="10" stroke-linecap="round" stroke-linejoin="round"/>
<path d="M44.4926 97.1058C43.5338 93.6591 41.4035 90.4884 38.4656 88.1359" stroke="#F1B195" stroke-width="0.72" stroke-miterlimit="10" stroke-linecap="round" stroke-linejoin="round"/>
<path d="M32.4272 94.7447C30.5025 91.4396 27.5369 88.6381 23.9733 86.757" stroke="#F1B195" stroke-width="0.72" stroke-miterlimit="10" stroke-linecap="round" stroke-linejoin="round"/>
<path d="M21.1884 93.1575C20.8464 92.1502 19.847 91.4593 18.8703 90.8884C17.3974 90.0272 15.8434 89.2788 14.2321 88.6533" stroke="#F1B195" stroke-width="0.72" stroke-miterlimit="10" stroke-linecap="round" stroke-linejoin="round"/>
<path d="M53.4097 101.922C51.8568 104.285 49.509 106.164 46.8884 107.548C44.2668 108.931 41.3724 109.841 38.4385 110.539" stroke="#F1B195" stroke-width="0.72" stroke-miterlimit="10" stroke-linecap="round" stroke-linejoin="round"/>
<path d="M57.514 104.373C57.7987 106.631 57.4942 108.948 56.6312 111.081" stroke="#F1B195" stroke-width="0.72" stroke-miterlimit="10" stroke-linecap="round" stroke-linejoin="round"/>
<path d="M45.518 98.7114C42.6176 99.949 40.0445 101.732 37.2371 103.135C34.4287 104.537 31.2179 105.573 28.0536 105.107" stroke="#F1B195" stroke-width="0.72" stroke-miterlimit="10" stroke-linecap="round" stroke-linejoin="round"/>
<path d="M33.0874 96.1818C31.2478 96.8217 29.4071 97.4606 27.5675 98.1005C26.0056 98.6427 24.4339 99.1885 22.7899 99.4672C21.145 99.7459 19.4082 99.7459 17.8414 99.2145" stroke="#F1B195" stroke-width="0.72" stroke-miterlimit="10" stroke-linecap="round" stroke-linejoin="round"/>
<path d="M19.9286 93.807C16.1416 94.8896 12.1648 95.4246 8.19482 95.3861" stroke="#F1B195" stroke-width="0.72" stroke-miterlimit="10" stroke-linecap="round" stroke-linejoin="round"/>
<path d="M69.5598 60.7654C69.5766 60.4051 69.2454 60.1192 68.9409 59.888C67.5283 58.809 66.1157 57.7318 64.7031 56.6537C63.2391 55.537 61.7543 54.407 60.0234 53.6676" stroke="#F1B195" stroke-width="0.72" stroke-miterlimit="10" stroke-linecap="round" stroke-linejoin="round"/>
<path d="M64.185 60.8673C63.9043 63.477 62.635 65.9415 60.9229 68.0547C59.2108 70.1679 57.0647 71.9603 54.8543 73.6505" stroke="#F1B195" stroke-width="0.72" stroke-miterlimit="10" stroke-linecap="round" stroke-linejoin="round"/>
<path d="M69.7585 60.8708C69.4817 63.3604 69.1763 65.8679 68.3321 68.25C67.4879 70.6329 66.0595 72.9084 63.8857 74.4507" stroke="#F1B195" stroke-width="0.72" stroke-miterlimit="10" stroke-linecap="round" stroke-linejoin="round"/>
<path d="M55.4361 61.119C52.428 64.1078 52.422 68.715 50.0575 72.1474C48.6498 74.1907 46.4849 75.7008 44.2904 77.0603" stroke="#F1B195" stroke-width="0.72" stroke-miterlimit="10" stroke-linecap="round" stroke-linejoin="round"/>
<path d="M59.1063 59.4329C56.1427 57.8834 53.1524 56.324 49.9001 55.3651C46.6469 54.408 43.0674 54.0844 39.8122 55.038" stroke="#F1B195" stroke-width="0.72" stroke-miterlimit="10" stroke-linecap="round" stroke-linejoin="round"/>
<path d="M46.2762 64.0245C39.6362 61.4104 32.5969 58.7388 25.4103 59.5257" stroke="#F1B195" stroke-width="0.72" stroke-miterlimit="10" stroke-linecap="round" stroke-linejoin="round"/>
<path d="M39.5158 68.5772C39.3725 69.4743 38.5599 70.1455 37.78 70.7137C34.7136 72.947 31.3565 74.8514 27.7988 76.374" stroke="#F1B195" stroke-width="0.72" stroke-miterlimit="10" stroke-linecap="round" stroke-linejoin="round"/>
<path d="M31.5579 67.3453C29.6342 67.0012 27.9349 65.9796 26.0399 65.5243C24.1854 65.0798 22.2311 65.1972 20.3183 65.3173" stroke="#F1B195" stroke-width="0.72" stroke-miterlimit="10" stroke-linecap="round" stroke-linejoin="round"/>
<path d="M81.1744 52.6249C79.3545 47.2119 77.5258 41.7595 76.8595 36.1333C76.471 32.8506 76.467 29.463 75.1414 26.3882C74.2626 24.3494 72.8421 22.5463 71.4918 20.7324C68.5885 16.8322 65.9412 12.7671 63.7645 8.49678" stroke="#F1B195" stroke-width="0.72" stroke-miterlimit="10" stroke-linecap="round" stroke-linejoin="round"/>
<path d="M96.7644 42.3849C100.58 38.6908 103.441 34.192 105.056 29.3481C105.583 27.7663 105.979 26.1523 106.438 24.5535C106.955 22.7522 107.552 20.9715 108.148 19.1917C109.241 15.9358 110.35 12.6432 112.278 9.72257" stroke="#F1B195" stroke-width="0.72" stroke-miterlimit="10" stroke-linecap="round" stroke-linejoin="round"/>
<path d="M73.0779 22.0421C73.497 21.0724 73.4516 19.9916 73.326 18.9566C72.9968 16.2608 72.1605 13.6162 70.8636 11.1723" stroke="#F1B195" stroke-width="0.72" stroke-miterlimit="10" stroke-linecap="round" stroke-linejoin="round"/>
<path d="M77.6277 35.6561C78.2505 35.8622 78.9217 35.5181 79.4466 35.1506C82.7058 32.8663 84.5662 29.036 84.2222 25.3141" stroke="#F1B195" stroke-width="0.72" stroke-miterlimit="10" stroke-linecap="round" stroke-linejoin="round"/>
<path d="M72.3925 22.8788C71.3743 22.6431 70.3571 22.4074 69.34 22.1717C68.2783 21.9261 67.2018 21.6743 66.2528 21.1787C64.8066 20.4223 63.7785 19.1668 62.8008 17.9408" stroke="#F1B195" stroke-width="0.72" stroke-miterlimit="10" stroke-linecap="round" stroke-linejoin="round"/>
<path d="M77.1624 35.3935C76.3201 35.4419 75.5293 35.0601 74.7919 34.69C73.7351 34.1612 72.6784 33.6325 71.6256 33.0984C70.8071 32.6843 69.9787 32.2604 69.3105 31.6636C68.3022 30.7638 67.7348 29.5441 67.1921 28.3584" stroke="#F1B195" stroke-width="0.72" stroke-miterlimit="10" stroke-linecap="round" stroke-linejoin="round"/>
<path d="M80.0342 47.169C81.9095 46.4332 83.1343 44.7762 84.0269 43.1102C85.2665 40.7927 86.0771 38.2869 86.4112 35.7292" stroke="#F1B195" stroke-width="0.72" stroke-miterlimit="10" stroke-linecap="round" stroke-linejoin="round"/>
<path d="M106.412 22.4855C106.294 20.5964 106.172 18.6875 105.586 16.8709C105.31 16.0169 104.931 15.1852 104.779 14.307C104.626 13.4278 104.727 12.4626 105.327 11.7582" stroke="#F1B195" stroke-width="0.72" stroke-miterlimit="10" stroke-linecap="round" stroke-linejoin="round"/>
<path d="M78.5506 47.905C73.2719 46.7947 68.5951 43.52 66.0744 39.1708" stroke="#F1B195" stroke-width="0.72" stroke-miterlimit="10" stroke-linecap="round" stroke-linejoin="round"/>
<path d="M80.9649 53.0721C77.5516 52.0595 74.0976 50.6757 71.8398 48.1431" stroke="#F1B195" stroke-width="0.72" stroke-miterlimit="10" stroke-linecap="round" stroke-linejoin="round"/>
<path d="M108.023 20.0989C109.92 18.596 112.338 17.6693 114.074 16.0132C115.287 14.8562 116.129 13.3775 117.52 12.3989" stroke="#F1B195" stroke-width="0.72" stroke-miterlimit="10" stroke-linecap="round" stroke-linejoin="round"/>
<path d="M81.7574 52.7929C83.4775 51.8618 84.5036 50.1778 85.3695 48.5396C85.9389 47.4633 86.4737 46.3718 86.9739 45.2677" stroke="#F1B195" stroke-width="0.72" stroke-miterlimit="10" stroke-linecap="round" stroke-linejoin="round"/>
<path d="M96.5492 42.5948C98.9266 43.5753 101.04 45.0773 102.659 46.9351" stroke="#F1B195" stroke-width="0.72" stroke-miterlimit="10" stroke-linecap="round" stroke-linejoin="round"/>
<path d="M101.283 38.0574C103.016 37.8047 104.624 37.1003 106.19 36.3816C107.365 35.8421 108.542 35.2855 109.575 34.5462C110.609 33.8059 111.502 32.8658 111.956 31.7447" stroke="#F1B195" stroke-width="0.72" stroke-miterlimit="10" stroke-linecap="round" stroke-linejoin="round"/>
<path d="M105.09 29.7368C110.393 28.3737 114.491 24.6142 118.064 20.809" stroke="#F1B195" stroke-width="0.72" stroke-miterlimit="10" stroke-linecap="round" stroke-linejoin="round"/>
<path d="M103.855 31.3353C100.863 26.8266 99.3829 21.5042 99.6617 16.2472" stroke="#F1B195" stroke-width="0.72" stroke-miterlimit="10" stroke-linecap="round" stroke-linejoin="round"/>
<path d="M99.8289 38.2745C96.4363 34.5572 94.3268 29.8916 93.8632 25.0845" stroke="#F1B195" stroke-width="0.72" stroke-miterlimit="10" stroke-linecap="round" stroke-linejoin="round"/>
<path d="M96.7813 42.5122C95.4429 42.1403 94.307 41.2092 93.7653 40.0378" stroke="#F1B195" stroke-width="0.72" stroke-miterlimit="10" stroke-linecap="round" stroke-linejoin="round"/>
<path d="M109.733 13.3018C109.9 12.0292 109.677 10.7432 109.663 9.46161C109.649 8.18007 109.88 6.81787 110.8 5.84461" stroke="#F1B195" stroke-width="0.72" stroke-miterlimit="10" stroke-linecap="round" stroke-linejoin="round"/>
<path d="M105.862 141.169C106.93 141.417 107.806 142.086 108.641 142.737C112.655 145.861 116.851 149.231 118.429 153.807" stroke="#F1B195" stroke-width="0.72" stroke-miterlimit="10" stroke-linecap="round" stroke-linejoin="round"/>
<path d="M104.36 143.04C103.816 145.031 103.736 147.124 104.127 149.144" stroke="#F1B195" stroke-width="0.72" stroke-miterlimit="10" stroke-linecap="round" stroke-linejoin="round"/>
<path d="M107.768 141.204C110.392 140.21 113.377 140.021 116.129 140.676" stroke="#F1B195" stroke-width="0.72" stroke-miterlimit="10" stroke-linecap="round" stroke-linejoin="round"/>
<path d="M110.47 145.139C110.153 145.693 110.097 146.337 110.09 146.962C110.064 149.161 110.57 151.363 111.561 153.371" stroke="#F1B195" stroke-width="0.72" stroke-miterlimit="10" stroke-linecap="round" stroke-linejoin="round"/>
<path d="M113.167 145.18C114.519 145.027 115.873 144.89 117.228 144.769C118.15 144.687 119.176 144.638 119.897 145.164" stroke="#F1B195" stroke-width="0.72" stroke-miterlimit="10" stroke-linecap="round" stroke-linejoin="round"/>
<path d="M114.523 149.574C114.032 150.423 114.179 151.459 114.482 152.379C114.783 153.298 115.23 154.194 115.311 155.15" stroke="#F1B195" stroke-width="0.72" stroke-miterlimit="10" stroke-linecap="round" stroke-linejoin="round"/>
<path d="M117.097 149.248C118.198 149.202 119.312 149.44 120.274 149.927" stroke="#F1B195" stroke-width="0.72" stroke-miterlimit="10" stroke-linecap="round" stroke-linejoin="round"/>
<path d="M117.954 152.587C119.073 152.614 120.177 153.016 121.004 153.701" stroke="#F1B195" stroke-width="0.72" stroke-miterlimit="10" stroke-linecap="round" stroke-linejoin="round"/>
<path d="M57.819 92.9922C58.9766 94.029 60.0333 95.1537 61.2057 96.1691C62.3682 97.1944 63.7037 98.0475 65.1529 98.7008C65.1786 98.7125 65.1964 98.7349 65.2003 98.76C65.5414 100.592 65.9753 102.422 66.0623 104.299C66.1543 106.162 65.8409 108.113 64.7486 109.757C63.6543 111.424 61.7187 112.447 59.804 113.103C57.8773 113.785 55.8874 114.278 54.1179 115.145L54.112 115.149C54.029 115.189 53.9321 115.183 53.857 115.143C52.7004 114.52 51.2087 114.277 49.9987 114.772C48.7789 115.273 48.0612 116.463 47.6895 117.654C47.6648 117.738 47.5887 117.799 47.5007 117.817C45.1876 118.291 42.8487 117.932 40.6236 117.511C38.3835 117.063 36.1979 116.392 34.1181 115.515C32.0866 114.565 29.988 113.838 27.8864 113C25.7778 112.18 23.8255 111.03 22.0422 109.739C20.248 108.451 18.5784 107.044 16.8801 105.673L11.7941 101.544L1.61328 93.2978C1.19217 92.9527 0.748318 92.6131 0.415184 92.1739C0.0761192 91.7438 -0.0889671 91.1729 0.0484383 90.6433C0.324238 89.5777 1.37603 88.8204 2.48813 88.5516C3.60912 88.2522 4.77064 88.2845 5.88273 88.1286C7.0057 88.0103 8.10889 87.771 9.19825 87.4968C13.5596 86.3703 17.5849 84.3252 22.063 83.3438C24.2842 82.8465 26.6428 82.6672 28.9184 83.0194C31.193 83.3528 33.3717 83.9649 35.5761 84.4677C39.9691 85.5054 44.4215 86.4527 48.9687 86.5925C49.0003 86.5934 49.029 86.6095 49.0458 86.6319C49.5569 87.3328 50.2993 87.8758 51.0683 88.3562C51.8414 88.8392 52.6678 89.2542 53.4527 89.7327C55.0274 90.68 56.4914 91.776 57.819 92.9922ZM57.7814 93.0262C56.439 91.828 54.9651 90.7517 53.3854 89.8259C52.5986 89.359 51.7672 88.9539 50.9804 88.4745C50.1974 87.9977 49.4303 87.4555 48.8857 86.7278L48.9638 86.7673C44.3898 86.675 39.899 85.7806 35.4842 84.7957C33.2699 84.3189 31.0773 83.7355 28.8492 83.4388C26.625 83.1144 24.3544 83.2408 22.1598 83.7193C17.749 84.6406 13.6941 86.657 9.27832 87.754C8.17414 88.0219 7.05414 88.2531 5.91436 88.3616C4.77855 88.5085 3.62889 88.4691 2.5504 88.7469C1.48675 88.9916 0.498219 89.705 0.233293 90.68C0.104785 91.1621 0.243181 91.6757 0.558521 92.087C0.868919 92.5046 1.29398 92.8479 1.72202 93.1857L11.977 101.358L17.1094 105.439C18.8265 106.793 20.512 108.181 22.3032 109.437C24.0894 110.703 26.0072 111.785 28.0841 112.6C30.1491 113.42 32.309 114.168 34.3266 115.109C36.3749 115.969 38.5269 116.625 40.7323 117.064C42.9288 117.479 45.2172 117.812 47.3821 117.362L47.1933 117.525C47.395 116.887 47.6757 116.26 48.0929 115.693C48.5061 115.13 49.0774 114.631 49.7813 114.34C50.4841 114.047 51.272 113.978 52.0163 114.065C52.7617 114.156 53.4823 114.377 54.1209 114.726L53.8609 114.725C55.7085 113.8 57.7379 113.366 59.6389 112.714C61.5378 112.093 63.3755 111.15 64.4431 109.586C65.5127 108.035 65.8646 106.143 65.8023 104.306C65.745 102.458 65.3387 100.625 65.0234 98.7869L65.0708 98.846C63.6177 98.1703 62.2782 97.2903 61.1246 96.2453C59.9611 95.2102 58.9222 94.0747 57.7814 93.0262" fill="#01010B"/>
<path d="M123.938 102.258L125.587 103.096C125.608 103.107 125.617 103.132 125.605 103.152C125.599 103.161 125.589 103.168 125.579 103.171C123.801 103.661 122.109 104.38 120.522 105.236C118.94 106.103 117.45 107.101 116.106 108.239C116.057 108.28 115.998 108.301 115.938 108.302L115.932 108.302C113.167 108.368 110.386 108.333 107.627 108.097C104.866 107.878 102.12 107.51 99.4115 106.988C99.3166 106.971 99.2524 106.886 99.2642 106.8L99.6863 104.168C99.8277 103.293 99.9285 102.409 100.181 101.547C100.646 99.8183 101.316 98.1496 101.941 96.4728C101.953 96.4415 101.986 96.4191 102.02 96.4137C105.873 95.8231 109.892 96.2461 113.566 97.4443C115.411 98.0295 117.176 98.7913 118.887 99.6256C120.596 100.469 122.275 101.351 123.938 102.258ZM123.91 102.3C122.235 101.415 120.54 100.554 118.787 99.8075C117.039 99.0511 115.245 98.3907 113.419 97.8314C111.59 97.2821 109.722 96.851 107.813 96.6153C105.908 96.3832 103.962 96.3375 102.051 96.592L102.129 96.5338C101.451 98.1917 100.813 99.8685 100.402 101.593C100.172 102.449 100.091 103.334 99.969 104.211L99.631 106.846L99.4827 106.658C102.195 107.093 104.928 107.415 107.672 107.609C110.416 107.79 113.165 107.886 115.92 107.819L115.747 107.88C117.157 106.754 118.707 105.772 120.365 104.984C122.018 104.184 123.768 103.573 125.552 103.093L125.544 103.167L123.91 102.3Z" fill="#01010B"/>
<path d="M69.3657 84.1252C69.684 86.9078 70.3117 89.6546 71.1411 92.3441C71.9675 95.0344 72.9293 97.6862 73.9623 100.317C74.0127 100.446 73.9376 100.589 73.7953 100.635C73.7715 100.643 73.7439 100.647 73.7191 100.648C69.0879 100.908 64.3262 99.363 61.0502 96.3769C59.4152 94.9018 58.0273 93.2555 56.3003 91.9085C55.4482 91.2256 54.5496 90.5903 53.6105 90.0068C52.6754 89.4207 51.675 88.9189 50.7299 88.3238C49.7997 87.7341 48.8774 87.0055 48.4613 85.9892C48.0135 84.9721 48.3644 83.7819 49.1088 82.9592C49.8413 82.1016 50.9553 81.5773 52.0803 81.3085C53.22 81.0423 54.3826 80.993 55.5312 80.9661C60.1605 80.9016 64.6198 82.0254 69.1818 82.2208C69.2036 82.2208 69.2213 82.2369 69.2223 82.2557L69.3657 84.1252ZM69.3123 84.1297L69.1393 82.2602L69.1788 82.2952C64.6059 82.1563 60.0735 81.3479 55.5381 81.3945C54.4063 81.4106 53.2685 81.4519 52.188 81.6929C51.1086 81.9197 50.0696 82.3722 49.3628 83.1474C48.6442 83.8958 48.2843 84.9649 48.6629 85.9238C49.0356 86.8827 49.9144 87.606 50.8278 88.1983C51.7481 88.8024 52.7762 89.2666 53.7272 89.8509C54.6841 90.4227 55.6024 91.0491 56.4753 91.7248C58.2447 93.061 59.7068 94.6858 61.3477 96.0964C64.6079 98.9436 69.2075 100.362 73.6885 100.153L73.4453 100.483C72.4074 97.8431 71.495 95.1563 70.8079 92.4203C70.1258 89.6851 69.6059 86.9168 69.3123 84.1297" fill="#01010B"/>
<path d="M91.4309 29.8615C92.3038 31.8967 92.8702 34.0431 93.0669 36.2244C93.2834 38.4021 93.1401 40.6121 92.6735 42.7611C92.2089 44.9102 91.4012 47.0099 90.2605 48.943C89.1751 50.8976 87.8682 52.7482 87.203 54.813C87.1634 54.9349 87.0221 55.0048 86.8876 54.9689L86.8738 54.9654L86.8649 54.9627C86.1027 54.7126 85.2783 54.5872 84.4717 54.623C83.668 54.6687 82.8604 54.8731 82.111 55.1769C80.6045 55.7943 79.2987 56.7846 78.1372 57.8798C78.0423 57.9685 77.8861 57.9739 77.7833 57.8941C76.0415 56.548 74.1405 55.3606 72.3454 54.0271C70.5482 52.7079 68.8638 51.1808 67.6598 49.3553C66.434 47.5485 65.5878 45.5689 64.8583 43.582C64.1515 41.5853 63.5099 39.5725 62.9544 37.5391C60.6857 29.4125 59.71 21.0215 59.794 12.6556C59.8336 10.5639 59.9087 8.47045 60.1035 6.38413C60.1529 5.86076 60.1756 5.34276 60.2557 4.81312C60.3407 4.29064 60.4811 3.74128 60.8626 3.28513C61.2403 2.8218 61.8907 2.58162 62.4927 2.56818C63.1007 2.54309 63.6879 2.64525 64.2503 2.75996C68.7966 3.63105 73.0443 5.86076 76.081 9.07268C78.923 12.3868 81.8264 15.6175 84.5675 18.9943C87.2919 22.3658 89.7642 25.9505 91.4309 29.8615ZM91.3815 29.8794C89.6594 25.9944 87.1436 22.4536 84.3748 19.1234C81.596 15.7994 78.6146 12.5857 75.7439 9.33795C72.7299 6.24164 68.6513 3.96354 64.1732 3.08169C63.6157 2.9616 63.0572 2.86302 62.5105 2.88095C61.9639 2.8926 61.4459 3.08438 61.1206 3.46705C60.4712 4.26017 60.5176 5.38578 60.3911 6.40564C60.1707 8.48389 60.0698 10.5711 60.0046 12.6583C59.9028 16.8345 60.1578 21.0179 60.7302 25.161C61.2808 29.3076 62.1606 33.4157 63.3369 37.4503C63.9172 39.4686 64.5854 41.467 65.314 43.444C66.0415 45.4165 66.8818 47.363 68.0789 49.1222C69.2543 50.8949 70.8834 52.3691 72.6647 53.6731C74.4401 54.9878 76.3469 56.1734 78.1194 57.5374L77.7665 57.5526C78.9507 56.4342 80.2961 55.4009 81.8956 54.7413C82.6972 54.4169 83.5494 54.1955 84.444 54.1427C85.3336 54.1005 86.2213 54.235 87.0487 54.5271L86.7117 54.6768C87.4491 52.5421 88.8103 50.6986 89.9184 48.7826C91.0849 46.8872 91.9212 44.8376 92.4204 42.7136C92.9166 40.5933 93.0926 38.403 92.9127 36.2351C92.7496 34.0646 92.2197 31.9209 91.3815 29.8794" fill="#01010B"/>
<path d="M50.4214 82.153C49.8174 82.4882 49.2994 82.9515 48.9356 83.5C48.9267 83.5126 48.9109 83.5188 48.8961 83.517C46.3912 83.2634 43.8892 82.913 41.4475 82.3206C39.0029 81.7453 36.6156 80.9871 34.258 80.1752C29.5427 78.5683 24.8917 76.7356 19.9767 75.8134C18.7509 75.5715 17.5232 75.4057 16.2687 75.2632C15.0202 75.1144 13.7233 74.937 12.538 74.3984C11.3795 73.866 10.3237 72.9573 9.9995 71.734C9.8532 71.13 9.90163 70.4937 10.1191 69.9165C10.3445 69.3421 10.7023 68.8313 11.1086 68.3724C11.9242 67.4529 12.9354 66.7288 13.8834 65.9904C14.8354 65.2492 15.7616 64.4803 16.6642 63.689C18.484 62.1162 20.126 60.4009 21.8104 58.6883C22.6615 57.8414 23.5463 57.0106 24.516 56.2587C25.4848 55.505 26.5484 54.8544 27.6556 54.288C29.8738 53.1534 32.2532 52.3379 34.6366 51.5905C39.4112 50.1118 44.3874 49.0435 49.4487 48.8885C54.4912 48.7361 59.6167 49.4979 64.2113 51.448C66.5037 52.4195 68.635 53.7189 70.4905 55.2854C72.3538 56.8457 73.9731 58.6237 75.4934 60.4502C75.5448 60.5111 75.5428 60.5953 75.4964 60.6545C74.2894 62.1968 73.2742 63.8592 72.4448 65.5934C71.6105 67.3275 70.9837 69.1369 70.4717 70.9696C69.4693 74.6439 69.1214 78.4626 69.323 82.2507C69.328 82.3215 69.2687 82.3825 69.1906 82.3869H69.1747C65.9956 82.2471 62.8699 81.7381 59.7254 81.4415C58.1527 81.2963 56.572 81.1968 54.9923 81.2434C53.4265 81.2793 51.7964 81.4235 50.4214 82.153ZM50.3937 82.1118C51.7727 81.359 53.4176 81.1968 54.9884 81.143C56.575 81.0794 58.1625 81.1628 59.7412 81.29C62.8986 81.5517 66.0302 82.0312 69.1856 82.1288L69.0383 82.2651C68.7783 78.4563 69.0709 74.6036 70.0288 70.8728C70.9917 67.1473 72.7117 63.5635 75.185 60.4528L75.187 60.6572C73.6923 58.8263 72.1028 57.0527 70.2769 55.4916C68.46 53.9268 66.3713 52.6256 64.1085 51.6416C61.8527 50.6423 59.4328 49.9621 56.9664 49.5275C54.4911 49.1296 51.9674 48.979 49.4566 49.0874C44.4269 49.2756 39.4853 50.3717 34.7552 51.8979C32.3897 52.6659 30.0389 53.5002 27.876 54.6366C25.6904 55.7488 23.8428 57.2866 22.1712 58.9849C20.5026 60.685 18.8409 62.4289 17.0111 64.0134C16.1037 64.8128 15.1715 65.5889 14.2126 66.3381C13.2527 67.0855 12.2731 67.7944 11.507 68.6628C11.1264 69.0938 10.8022 69.5626 10.6065 70.068C10.4167 70.5734 10.3811 71.1156 10.5036 71.6283C10.7725 72.6607 11.7087 73.4905 12.7743 73.9754C13.8557 74.4665 15.0983 74.643 16.337 74.7873C17.5815 74.9316 18.8557 75.0839 20.0864 75.3564C25.0528 76.3655 29.6781 78.2717 34.3568 79.9439C36.6977 80.7837 39.0662 81.5642 41.493 82.1665C43.9159 82.784 46.407 83.1621 48.905 83.4444L48.8664 83.4624C49.246 82.9067 49.7779 82.4434 50.3937 82.1118" fill="#01010B"/>
<path d="M143.374 69.6033C144.488 70.607 145.859 71.3383 147.279 71.9316C148.7 72.532 150.187 72.9918 151.651 73.5125C154.582 74.5502 157.387 75.8873 160.021 77.4601C160.06 77.4834 160.089 77.522 160.103 77.5605C160.617 79.0186 160.613 80.5358 160.981 81.9473C161.322 83.3678 161.968 84.7228 162.955 85.861C163.429 86.4336 164.063 86.9489 164.447 87.6883C164.635 88.0494 164.751 88.4384 164.81 88.8193L164.891 89.391L164.904 89.9771C164.867 90.3706 164.817 90.7873 164.557 91.1619C164.322 91.5356 163.88 91.8296 163.423 91.9138C162.508 92.0868 161.652 91.8842 160.86 91.6521C160.06 91.4119 159.315 91.0768 158.574 90.7918C157.828 90.5023 157.068 90.2442 156.302 90.0004C154.765 89.5237 153.193 89.1401 151.597 88.8596C150.004 88.5755 148.388 88.3846 146.763 88.3049C145.141 88.2179 143.495 88.2493 141.853 88.0763L141.841 88.0745C141.78 88.0683 141.733 88.0297 141.716 87.9795C141.096 86.0716 139.48 84.6072 137.646 83.5676C135.8 82.52 133.746 81.7815 131.658 81.2098C129.56 80.6461 127.379 80.3638 125.199 80.2733C123.016 80.1962 120.827 80.3459 118.685 80.7196C118.618 80.733 118.549 80.7007 118.516 80.6497C118.105 79.9515 117.851 79.2041 117.766 78.4191C117.691 77.6367 117.823 76.8409 118.119 76.106C118.394 75.364 118.882 74.7008 119.306 74.0555L120.557 72.0983C120.596 72.0329 120.673 71.9943 120.749 71.9889L127.428 71.6224L130.768 71.4494C131.868 71.3885 132.978 71.2702 133.991 70.9019C135.013 70.5586 135.843 69.8031 136.064 68.8173C136.199 68.3361 136.279 67.8127 136.579 67.3566C136.875 66.8968 137.413 66.6011 137.97 66.5034C139.098 66.2982 140.273 66.6925 141.095 67.379C141.946 68.0484 142.591 68.8863 143.374 69.6033ZM143.336 69.6374C142.542 68.9222 141.888 68.0905 141.041 67.4363C140.222 66.7669 139.077 66.3968 137.995 66.6065C137.463 66.714 136.977 67.0008 136.716 67.4301C136.45 67.8566 136.384 68.363 136.26 68.8595C136.149 69.3613 135.898 69.8605 135.511 70.253C135.129 70.6509 134.625 70.9341 134.103 71.142C133.049 71.5552 131.912 71.7004 130.795 71.79L127.456 72.0122C125.229 72.152 123.006 72.3107 120.773 72.4084L120.965 72.2999L119.683 74.2769C119.248 74.9302 118.793 75.5396 118.511 76.2377C118.219 76.9242 118.079 77.6609 118.134 78.394C118.195 79.1208 118.426 79.8592 118.795 80.5036L118.626 80.4328C120.798 80.0824 123.01 79.9587 125.21 80.0645C127.411 80.1693 129.586 80.5278 131.706 81.0565C133.817 81.6122 135.889 82.3318 137.778 83.3776C139.646 84.4056 141.352 85.9219 142.026 87.8738L141.889 87.7779C143.504 87.9258 145.139 87.872 146.783 87.9365C148.427 87.9948 150.067 88.1624 151.688 88.4303C153.308 88.7046 154.905 89.0827 156.468 89.5568C157.247 89.7988 158.021 90.0569 158.781 90.3455C159.548 90.6349 160.276 90.9558 161.033 91.1771C161.781 91.4003 162.588 91.5517 163.286 91.4155C163.995 91.2856 164.328 90.6502 164.345 89.9556C164.356 89.2656 164.255 88.5128 163.947 87.9007C163.636 87.2814 163.032 86.7706 162.524 86.1639C161.492 84.9621 160.799 83.5282 160.469 82.0477C160.126 80.5627 160.165 79.0607 159.707 77.6707L159.788 77.7711C157.218 76.1571 154.463 74.7823 151.577 73.6765C150.132 73.1235 148.659 72.6225 147.235 72.0149C145.817 71.4064 144.445 70.6572 143.336 69.6374" fill="#01010B"/>
<path d="M173.175 76.6652C174.463 77.7406 175.579 79.0024 176.36 80.4336C177.139 81.855 177.554 83.4842 177.299 85.0821C177.293 85.118 177.26 85.144 177.222 85.1466C175.601 85.2658 173.962 85.3761 172.327 85.2067C170.694 85.0526 169.089 84.5023 167.776 83.5945C166.444 82.7135 165.314 81.639 164.073 80.698C162.837 79.7462 161.544 78.8563 160.205 78.0301C157.528 76.373 154.656 74.9848 151.663 73.8727C150.167 73.3143 148.625 72.8187 147.136 72.1842C145.651 71.5542 144.205 70.7593 143.041 69.6642C142.463 69.1211 141.965 68.5359 141.41 68.0206C140.855 67.5089 140.245 67.0482 139.516 66.8591C138.799 66.6575 137.976 66.6736 137.374 67.024C136.754 67.3762 136.591 68.0735 136.429 68.8065C136.282 69.5548 135.787 70.3282 135.065 70.7665C134.356 71.2307 133.532 71.4646 132.719 71.6214C131.072 71.9073 129.447 71.893 127.826 72.0176L122.952 72.3007C121.327 72.3859 119.699 72.4979 118.057 72.4701C114.764 72.4585 111.515 71.7362 108.485 70.6374C108.411 70.6132 108.367 70.5442 108.368 70.477C108.437 69.2134 108.282 67.9614 107.87 66.7525C107.47 65.5453 106.913 64.3731 106.344 63.2143C105.767 62.0618 105.104 60.9362 104.205 59.9755C103.312 59.0148 102.146 58.2683 100.821 57.8856C100.761 57.8686 100.727 57.8095 100.747 57.7557C100.752 57.7413 100.76 57.7288 100.77 57.7189C103.161 55.215 106.097 53.1556 109.333 51.6356C112.562 50.0987 116.123 49.1281 119.759 48.818C120.663 48.7374 121.566 48.6621 122.411 48.4049C123.253 48.1504 124.017 47.6987 124.857 47.3501C126.552 46.6457 128.491 46.5382 130.298 46.8662C132.117 47.1897 133.808 47.9595 135.286 48.9453C136.772 49.932 138.063 51.1338 139.245 52.392C140.423 53.6449 141.61 54.8879 143.177 55.6739C144.718 56.4957 146.456 57.0101 148.115 57.7154C151.461 59.1412 154.214 61.4184 156.727 63.7879C159.254 66.161 161.632 68.6676 164.443 70.7539C167.24 72.8465 170.509 74.3996 173.175 76.6652ZM173.139 76.701C170.454 74.4659 167.177 72.9496 164.338 70.8722C161.487 68.802 159.074 66.3062 156.524 63.9689C153.987 61.6308 151.232 59.4136 147.943 58.0541C146.304 57.3775 144.552 56.8819 142.938 56.0467C141.294 55.2222 140.069 53.9003 138.911 52.651C137.749 51.3937 136.494 50.2089 135.051 49.2348C133.615 48.2615 131.985 47.506 130.228 47.1798C128.482 46.8509 126.617 46.9432 124.985 47.6055C124.169 47.9344 123.39 48.387 122.5 48.6505C121.611 48.913 120.687 48.9794 119.784 49.0537C116.176 49.3333 112.635 50.2672 109.411 51.7701C106.192 53.2828 103.299 55.362 100.944 57.8543L100.892 57.6876C102.258 58.0711 103.477 58.841 104.401 59.8232C105.333 60.8045 106.014 61.9471 106.605 63.105C107.187 64.2683 107.761 65.4369 108.183 66.6673C108.616 67.8924 108.794 69.2044 108.735 70.4869L108.619 70.3274C111.635 71.3893 114.83 72.0677 118.062 72.0507C121.292 72.0283 124.547 71.7406 127.793 71.573C129.412 71.4485 131.063 71.4548 132.618 71.1787C133.39 71.03 134.154 70.805 134.77 70.399C135.402 70.0002 135.79 69.4061 135.938 68.7053C136.026 68.3549 136.094 67.9776 136.256 67.6021C136.412 67.2257 136.712 66.8708 137.094 66.6396C137.884 66.1861 138.843 66.1897 139.665 66.4146C140.517 66.6387 141.201 67.1629 141.778 67.6944C142.361 68.2348 142.86 68.8209 143.414 69.3389C145.654 71.4368 148.867 72.3142 151.865 73.4273C154.894 74.5582 157.763 76.0226 160.441 77.7209C161.78 78.5713 163.07 79.4846 164.3 80.4605C165.539 81.4284 166.652 82.5137 167.942 83.391C169.213 84.2944 170.749 84.8357 172.354 85.0068C173.958 85.1888 175.588 85.0974 177.209 84.9943L177.132 85.0597C177.399 83.5013 177.014 81.8935 176.26 80.4766C175.503 79.0526 174.409 77.7854 173.139 76.701Z" fill="#01010B"/>
<path d="M90.6045 47.9168C92.2771 44.6861 93.1154 41.0942 92.9602 37.5337C92.89 35.7547 92.6003 33.9848 92.0893 32.2704C91.8273 31.4136 91.5199 30.5712 91.1403 29.7521L89.9274 27.3225L89.9254 27.3181C89.8957 27.2589 89.9017 27.1917 89.9333 27.1379C91.1363 25.1807 92.1911 23.1535 93.148 21.0914C94.096 19.0248 94.9155 16.8999 95.9297 14.8324C96.936 12.7694 98.1747 10.7512 99.8502 9.04667C101.503 7.33227 103.492 5.88672 105.698 4.80234C107.896 3.68928 110.368 3.14978 112.313 1.81984C112.793 1.49184 113.237 1.09573 113.738 0.741735C114.233 0.393119 114.818 0.0552579 115.509 0.00776021C116.201 -0.0531803 116.87 0.253313 117.326 0.664661C117.794 1.07691 118.143 1.56622 118.448 2.05823C120.966 5.96469 122.399 10.408 122.746 14.9014C122.921 17.1491 122.871 19.4092 122.609 21.6497C122.333 23.8893 121.805 26.1019 121.09 28.2608C119.656 32.5813 117.445 36.6796 114.682 40.4319C113.317 42.3193 111.789 44.1036 110.168 45.8171C109.353 46.6676 108.476 47.5046 107.411 48.1373C106.348 48.7835 105.107 49.1141 103.895 49.3481C102.676 49.5829 101.458 49.7585 100.288 50.1134C99.1138 50.4539 97.9542 50.8787 96.7294 51.1108C95.5066 51.3483 94.2255 51.3223 93.0185 51.0392C91.8075 50.7622 90.6796 50.2505 89.6367 49.6429C89.6209 49.6339 89.616 49.616 89.6249 49.6008L90.6045 47.9168ZM90.6529 47.9375L89.6852 49.6312L89.6743 49.59C91.7255 50.7999 94.2739 51.5482 96.6978 50.9782C97.8989 50.7264 99.0396 50.2837 100.217 49.9162C101.393 49.5345 102.629 49.3301 103.827 49.0747C105.024 48.8166 106.201 48.4743 107.194 47.8416C108.194 47.2214 109.044 46.4104 109.839 45.5599C111.426 43.8446 112.918 42.0549 114.296 40.198C117.029 36.4753 119.346 32.4684 120.814 28.1838C122.297 23.917 123 19.3886 122.553 14.9158C122.158 10.451 120.703 6.04625 118.153 2.21864C117.844 1.7356 117.501 1.27586 117.073 0.908426C116.649 0.540991 116.104 0.307982 115.541 0.362649C114.982 0.405666 114.465 0.699615 113.997 1.03927C113.525 1.38071 113.088 1.78131 112.582 2.13709C110.55 3.56292 108.058 4.11049 105.942 5.20473C103.795 6.27477 101.866 7.69702 100.265 9.37467C98.6541 11.0478 97.4372 12.9988 96.4368 15.0377C95.4295 17.0765 94.6051 19.1977 93.6452 21.2796C92.6913 23.3659 91.5545 25.3796 90.3129 27.3324L90.3178 27.1487L91.4942 29.6248C91.8619 30.461 92.1575 31.3231 92.4046 32.1951C92.888 33.94 93.1421 35.7341 93.1687 37.5292C93.2162 41.1175 92.3641 44.7103 90.6529 47.9375Z" fill="#01010B"/>
<path d="M107.061 79.8561C107.982 79.5935 108.883 79.4161 109.825 79.3148C110.761 79.2064 111.708 79.1894 112.653 79.2333C114.538 79.3327 116.424 79.7262 118.143 80.4557L118.153 80.4592C118.284 80.5157 118.342 80.6582 118.279 80.7774C118.243 80.8482 118.17 80.8966 118.09 80.9109C116.941 81.1108 115.807 81.3886 114.688 81.713C113.569 82.0347 112.463 82.4102 111.4 82.8745C110.336 83.3351 109.319 83.8845 108.36 84.5055C107.402 85.1275 106.508 85.8229 105.621 86.5183C105.524 86.5936 105.379 86.5838 105.296 86.4959C105.248 86.4458 105.231 86.3794 105.245 86.3185L105.247 86.3077C105.498 85.2036 105.818 84.1175 106.103 83.0295C106.415 81.9532 106.724 80.8831 107.061 79.8561ZM107.1 79.8902C106.9 81.0256 106.673 82.1163 106.448 83.2025C106.196 84.277 105.979 85.3533 105.693 86.4117L105.32 86.2011C106.222 85.494 107.216 84.8891 108.224 84.3191C109.233 83.7509 110.264 83.2195 111.315 82.7203C113.411 81.7157 115.639 80.8858 117.981 80.4404L117.928 80.8948C116.24 80.2451 114.447 79.8328 112.615 79.6742C111.7 79.59 110.776 79.5801 109.853 79.6124C108.936 79.6518 107.992 79.7486 107.1 79.8902Z" fill="#01010B"/>
<path d="M151.552 96.586C152.183 97.82 152.607 99.2118 152.343 100.587C152.21 101.27 151.851 101.917 151.312 102.414C150.774 102.915 150.086 103.251 149.392 103.527C149.353 103.543 149.309 103.531 149.285 103.5C148.698 102.753 147.6 102.653 146.627 102.618L143.603 102.516C141.586 102.454 139.571 102.364 137.556 102.324C135.542 102.284 133.531 102.29 131.532 102.414C130.533 102.48 129.538 102.581 128.554 102.736C127.568 102.883 126.616 103.166 125.645 103.373L125.625 103.377C125.557 103.392 125.488 103.381 125.432 103.352C123.59 102.411 121.809 101.428 119.965 100.532C118.126 99.6339 116.243 98.8112 114.294 98.1427C110.416 96.8073 106.193 96.1047 102.063 96.6613C101.967 96.6765 101.876 96.6182 101.859 96.5313C101.855 96.5044 101.859 96.474 101.868 96.4498C103.22 93.1339 104.378 89.7553 105.367 86.3354C105.372 86.3166 105.385 86.2987 105.4 86.287C108.912 83.5931 113.09 81.5919 117.584 80.6321C122.08 79.7243 126.831 79.7225 131.304 80.8212C133.537 81.3643 135.709 82.135 137.695 83.2328C138.68 83.7903 139.618 84.4409 140.383 85.2475C141.163 86.0361 141.717 87.0237 142.059 88.0059C142.241 88.4917 142.573 88.8788 143.065 89.1315C143.542 89.386 144.082 89.5922 144.586 89.8467C145.596 90.3539 146.546 90.9553 147.414 91.6399C149.158 93.003 150.585 94.695 151.552 96.586ZM151.504 96.6066C150.521 94.7309 149.086 93.0568 147.338 91.7206C146.458 91.0601 145.501 90.4857 144.491 90.0071C143.986 89.766 143.459 89.5805 142.94 89.3206C142.414 89.0751 141.987 88.6037 141.793 88.1027C141.111 86.0979 139.402 84.6148 137.471 83.5653C135.524 82.515 133.367 81.7873 131.184 81.2281C126.793 80.1554 122.114 80.0129 117.646 80.8786C113.192 81.773 108.97 83.6881 105.539 86.4322L105.573 86.3838C104.623 89.818 103.495 93.2145 102.202 96.5564L102.007 96.344C106.204 95.7221 110.53 96.3655 114.473 97.7107C116.455 98.3757 118.366 99.1966 120.226 100.09C122.091 100.973 123.888 101.982 125.7 102.911L125.486 102.891C126.478 102.68 127.454 102.395 128.461 102.248C129.467 102.092 130.48 101.991 131.493 101.926C133.522 101.791 135.552 101.838 137.571 101.916C139.589 101.995 141.603 102.124 143.619 102.226L146.641 102.389C147.146 102.421 147.661 102.462 148.16 102.602C148.667 102.728 149.116 103.019 149.429 103.404L149.322 103.378C150.013 103.121 150.691 102.808 151.225 102.336C151.753 101.861 152.108 101.236 152.246 100.571C152.52 99.227 152.119 97.8397 151.504 96.6066" fill="#01010B"/>
<path d="M99.705 144.336C102.394 143.368 104.842 141.872 106.834 139.988C108.866 138.124 110.234 135.806 111.91 133.643C111.983 133.548 112.12 133.516 112.233 133.562L112.244 133.566C114.562 134.489 117.041 135.231 119.21 136.579C120.283 137.251 121.269 138.064 122.043 139.034C122.815 140.004 123.354 141.1 123.757 142.217C124.516 144.456 125.003 146.787 124.915 149.139C124.856 150.309 124.659 151.491 124.162 152.583C123.676 153.675 122.91 154.667 121.912 155.426C120.894 156.161 119.627 156.591 118.342 156.707C117.051 156.841 115.747 156.693 114.493 156.407C111.959 155.828 109.775 154.44 107.749 153.039C105.703 151.634 103.726 150.165 101.414 149.185C100.276 148.66 99.099 148.173 98.0185 147.522C96.945 146.884 95.9456 146.029 95.4928 144.911C95.482 144.885 95.4958 144.856 95.5245 144.845C95.5344 144.842 95.5462 144.842 95.5561 144.844C96.946 145.128 98.3902 144.791 99.705 144.336ZM99.7247 144.381C98.412 144.853 96.9628 145.214 95.5324 144.941L95.5956 144.875C96.0741 145.953 97.0765 146.742 98.151 147.333C99.2354 147.933 100.419 148.375 101.586 148.861C103.963 149.813 106.024 151.283 108.024 152.714C110.038 154.124 112.096 155.557 114.562 156.183C115.777 156.505 117.06 156.659 118.322 156.541C119.582 156.448 120.826 156.03 121.794 155.294C122.748 154.544 123.477 153.568 123.931 152.501C124.393 151.432 124.572 150.276 124.598 149.131C124.631 146.83 124.083 144.536 123.297 142.356C122.891 141.271 122.359 140.225 121.618 139.314C120.876 138.404 119.931 137.639 118.891 137.002C116.816 135.701 114.373 134.952 112.012 134.004L112.346 133.927L109.873 137.158C109.035 138.236 108.089 139.259 107.033 140.169C104.92 141.988 102.427 143.432 99.7247 144.381Z" fill="#01010B"/>
<path d="M108.472 68.3742C108.872 72.0065 107.856 75.584 107.305 79.1553C106.971 80.9396 106.476 82.6971 106.069 84.4697C105.665 86.2441 105.17 87.9998 104.625 89.7438C104.085 91.4877 103.497 93.2209 102.861 94.9389C102.225 96.6578 101.526 98.3534 100.982 100.081C99.7668 103.502 100.122 107.253 98.7081 110.728C97.3964 114.174 95.7455 117.475 93.977 120.73C93.5213 121.538 93.0972 122.355 92.5585 123.145C92.0158 123.915 91.3367 124.694 90.3343 125.096C89.327 125.519 88.1734 125.338 87.2373 124.993C86.2645 124.655 85.4164 124.079 84.7037 123.416C83.2742 122.071 82.3628 120.397 81.57 118.734L79.2994 113.708C77.7701 110.366 76.3911 106.963 74.9301 103.594C71.9566 96.889 69.7008 89.837 69.1077 82.5949C68.8378 78.9788 69.0701 75.3215 69.8866 71.7645C70.7051 68.212 72.1266 64.7492 74.2727 61.6627C75.3463 60.1213 76.5908 58.6784 77.9995 57.3727C79.4061 56.084 81.057 54.8885 83.0627 54.3938C84.0512 54.1411 85.1287 54.1088 86.1281 54.3248C87.1246 54.5345 88.1141 54.9351 88.8238 55.6565C89.1945 55.9979 89.3893 56.5159 89.4674 56.9578C89.5593 57.4112 89.6077 57.8611 89.7293 58.2805C89.847 58.6972 90.0753 59.0826 90.4915 59.2143C90.9047 59.3506 91.4029 59.2878 91.8438 59.14C92.7374 58.8317 93.5559 58.242 94.5158 57.9346C95.4559 57.594 96.4543 57.3933 97.4616 57.3279C99.4693 57.1944 101.568 57.6541 103.164 58.7967C104.766 59.9429 105.764 61.5919 106.577 63.2337C107.373 64.8872 108.185 66.5702 108.472 68.3742ZM108.418 68.3814C108.113 66.5899 107.285 64.9204 106.471 63.2768C105.643 61.6484 104.631 60.0281 103.055 58.9258C101.487 57.8271 99.4357 57.3978 97.4804 57.5465C96.4988 57.62 95.528 57.8253 94.6186 58.1667C93.6894 58.4732 92.9223 59.0521 91.9525 59.4043C91.4682 59.5683 90.9175 59.6607 90.3778 59.4949C89.8124 59.3192 89.5217 58.8057 89.3952 58.3639C89.1125 57.4722 89.2064 56.4908 88.5382 55.885C87.9025 55.2505 86.9753 54.8786 86.0392 54.694C85.0892 54.5022 84.1155 54.5408 83.1833 54.7881C81.314 55.2828 79.7136 56.4066 78.3197 57.6613C76.9239 58.9338 75.6853 60.3462 74.6138 61.8581C72.4696 64.8872 71.0333 68.3052 70.1871 71.8228C69.3429 75.3457 69.075 78.9797 69.3093 82.5832C69.5248 86.1931 70.2969 89.7599 71.3318 93.2469C72.3777 96.7349 73.6707 100.16 75.2039 103.502C76.7005 106.855 78.1122 110.236 79.678 113.566L81.999 118.566C82.8027 120.201 83.6914 121.84 85.0526 123.109C85.7297 123.735 86.5186 124.269 87.4162 124.578C88.3039 124.902 89.2954 125.043 90.1356 124.684C90.9848 124.348 91.6194 123.643 92.1354 122.903C92.6475 122.153 93.0745 121.33 93.5263 120.527C95.2789 117.291 96.9258 113.98 98.2129 110.582C98.5193 109.729 98.7842 108.864 98.9731 107.987C99.1451 107.111 99.2736 106.213 99.3991 105.311L99.7866 102.615C99.9556 101.712 100.215 100.826 100.502 99.954C101.082 98.2091 101.808 96.5207 102.467 94.8162C103.127 93.1125 103.74 91.3927 104.306 89.6595C104.874 87.9281 105.401 86.1841 105.824 84.4168C106.251 82.6522 106.768 80.902 107.122 79.124C107.717 75.5643 108.773 71.9966 108.418 68.3814" fill="#01010B"/>
<path d="M75.2611 130.644C75.8186 134.012 75.4885 137.444 74.8894 140.787C74.2617 144.134 73.5233 147.464 72.5268 150.743C71.5215 154.015 70.1929 157.231 68.3286 160.201C66.4672 163.173 64.1916 165.879 62.0039 168.629L58.7033 172.746C57.5882 174.108 56.4484 175.476 55.0882 176.678C53.7359 177.87 52.1295 178.91 50.2761 179.403C48.4572 179.91 46.3862 179.935 44.6237 179.145C42.8404 178.354 41.7045 176.808 40.89 175.287C40.0804 173.74 39.4092 172.151 38.8072 170.539C37.6101 167.312 36.7313 164.008 35.8337 160.716C34.9381 157.441 34.1205 154.031 34.6277 150.625C35.0804 147.228 36.4723 144.039 37.4934 140.787C38.0124 139.162 38.4572 137.515 38.6836 135.839C38.904 134.169 38.8922 132.444 39.4408 130.783C39.9855 129.107 41.232 127.732 42.4835 126.485C43.734 125.229 45.0616 124.011 45.8702 122.514C46.7114 121.029 46.7055 119.296 47.1968 117.625C47.4469 116.79 47.8304 115.963 48.47 115.278C49.0948 114.582 50.0695 114.133 51.057 114.076C52.0465 114.01 53.0202 114.249 53.8763 114.654C54.7294 115.079 55.45 115.685 56.055 116.341C56.6659 116.991 57.2224 117.669 57.9124 118.211C58.5807 118.768 59.4595 119.064 60.3669 119.016C61.2744 118.982 62.1789 118.731 63.1141 118.604C64.0423 118.45 65.0377 118.486 65.9452 118.742C66.8576 118.989 67.7107 119.385 68.4857 119.87C69.2746 120.338 69.9942 120.898 70.6457 121.513C73.2643 123.988 74.7382 127.297 75.2611 130.644ZM75.2087 130.652C74.6462 127.318 73.1338 124.042 70.5171 121.626C69.8667 121.026 69.151 120.482 68.3691 120.028C67.601 119.559 66.7617 119.181 65.878 118.953C64.9903 118.715 64.069 118.691 63.1576 118.852C62.2451 118.983 61.3476 119.249 60.3798 119.298C59.412 119.366 58.4037 119.039 57.688 118.449C56.9516 117.885 56.3763 117.198 55.7663 116.567C55.1633 115.931 54.4813 115.376 53.6835 114.989C52.8828 114.621 51.9753 114.415 51.0946 114.484C50.2098 114.547 49.4012 114.945 48.8298 115.559C48.2506 116.167 47.8769 116.939 47.6317 117.732C47.1404 119.321 47.1325 121.105 46.232 122.676C45.366 124.239 44.0009 125.462 42.7464 126.703C41.4871 127.937 40.2741 129.259 39.7344 130.865C39.1858 132.466 39.1739 134.18 38.9367 135.867C38.6895 137.559 38.2239 139.214 37.6872 140.839C36.6057 144.082 35.2514 147.278 34.8353 150.646C34.3608 154.018 35.1961 157.386 36.1164 160.651C37.0525 163.934 37.9679 167.224 39.1947 170.418C39.8105 172.012 40.4975 173.59 41.3101 175.099C42.1276 176.581 43.2012 178.034 44.8401 178.749C46.4584 179.475 48.4028 179.46 50.1327 178.974C51.8883 178.505 53.4196 177.514 54.7363 176.351C56.058 175.18 57.1809 173.831 58.292 172.47L61.5828 168.353C63.7784 165.61 66.0016 162.877 67.8956 159.976C69.7827 157.069 71.1538 153.903 72.2075 150.66C73.2564 147.413 74.0373 144.091 74.7065 140.76C75.3471 137.43 75.7208 134.018 75.2087 130.652" fill="#01010B"/>
<path d="M149.378 103.438C149.893 104.077 149.918 104.922 149.754 105.666C149.593 106.424 149.248 107.141 148.841 107.811C148.05 109.168 147.103 110.446 146.077 111.664C144.013 114.099 141.663 116.306 139.369 118.552C137.051 120.768 134.563 122.935 131.54 124.407C128.529 125.896 125.216 126.667 122.065 127.71C120.486 128.228 118.933 128.808 117.488 129.56C116.049 130.319 114.729 131.255 113.646 132.399C111.457 134.677 109.987 137.513 107.607 139.766C105.274 142.03 102.326 143.755 99.095 144.759C98.2815 145.001 97.4254 145.171 96.5496 145.164C95.6846 145.149 94.7742 144.96 94.0654 144.469C92.6469 143.52 91.9351 141.781 92.4156 140.236C92.6666 139.465 93.2044 138.818 93.8034 138.269C94.4005 137.715 95.0609 137.234 95.6559 136.702C96.9163 135.686 97.5549 134.197 97.5786 132.681C97.636 131.163 97.3147 129.649 97.1664 128.122C97.0883 127.357 97.0606 126.587 97.1279 125.816C97.201 125.046 97.3948 124.291 97.6547 123.557C98.7609 120.613 101.202 118.224 104.023 116.535C105.448 115.688 106.984 115.036 108.391 114.215C109.802 113.402 111.024 112.353 112.183 111.251C113.348 110.152 114.454 108.987 115.72 107.951C116.977 106.908 118.347 105.975 119.821 105.201C121.289 104.419 122.847 103.778 124.456 103.279C125.256 103.017 126.086 102.841 126.91 102.658C127.731 102.454 128.569 102.322 129.41 102.225C132.782 101.83 136.179 101.963 139.546 102.112L144.603 102.361C145.445 102.409 146.287 102.434 147.132 102.498C147.955 102.564 148.882 102.769 149.378 103.438ZM149.336 103.467C148.844 102.822 147.942 102.632 147.124 102.574C146.285 102.52 145.439 102.504 144.597 102.467L139.539 102.274C136.171 102.162 132.782 102.069 129.453 102.504C128.621 102.611 127.797 102.752 126.991 102.963C126.18 103.154 125.366 103.337 124.581 103.606C123.005 104.117 121.482 104.766 120.052 105.553C118.624 106.344 117.271 107.243 116.025 108.253C114.772 109.258 113.658 110.409 112.474 111.506C111.295 112.604 110.036 113.667 108.583 114.487C107.14 115.311 105.6 115.949 104.191 116.768C101.394 118.405 98.9645 120.735 97.8455 123.616C97.291 125.05 97.1328 126.592 97.3345 128.107C97.4936 129.625 97.8317 131.137 97.7882 132.687C97.7645 133.458 97.629 134.238 97.2979 134.961C96.9756 135.688 96.4418 136.325 95.8329 136.863C94.6496 137.939 93.1599 138.854 92.6963 140.307C92.2663 141.733 92.9602 143.362 94.27 144.211C94.9195 144.65 95.742 144.812 96.5525 144.819C97.3681 144.817 98.1816 144.648 98.9655 144.407C102.107 143.39 104.972 141.669 107.252 139.464C109.567 137.274 111.022 134.452 113.266 132.099C114.381 130.917 115.757 129.938 117.232 129.16C118.714 128.384 120.296 127.793 121.888 127.268C125.073 126.226 128.337 125.407 131.303 124.008C134.279 122.617 136.779 120.519 139.129 118.343C141.464 116.138 143.843 113.959 145.929 111.561C146.968 110.36 147.929 109.1 148.735 107.76C149.152 107.096 149.499 106.397 149.669 105.651C149.842 104.92 149.827 104.095 149.336 103.467" fill="#01010B"/>
</svg>
